<?xml version="1.0" encoding="UTF-8"?>
<svg width="40px" height="42px" viewBox="0 0 40 42" version="1.1" xmlns="http://www.w3.org/2000/svg" xmlns:xlink="http://www.w3.org/1999/xlink">
    <!-- Generator: Sketch 63.1 (92452) - https://sketch.com -->
    <title>Compass</title>
    <desc>Created with Sketch.</desc>
    <g id="Screens" stroke="none" stroke-width="1" fill="none" fill-rule="evenodd">
        <g id="Home" transform="translate(-844.000000, -5084.000000)" fill="#474747">
            <g id="We-developed-tools-to-fight-this" transform="translate(0.000000, 4500.000000)">
                <path d="M860,595.9 C860,598.108 861.792,599.9 864,599.9 C866.208,599.9 868,598.108 868,595.9 C868,593.692 866.208,591.9 864,591.9 C861.792,591.9 860,593.692 860,595.9 L860,595.9 Z M884,613.9 L879.66,613.9 L882,617.9 L882,625.9 L880,625.9 L873.1,613.9 L866,613.9 L866,617.9 L862,617.9 L862,613.9 L854.9,613.9 L848,625.9 L846,625.9 L846,617.9 L848.3,613.9 L844,613.9 L844,609.9 L850.6,609.9 L856.76,599.3 C856.566,598.882 856.412,598.446 856.3,598 C855.184,593.732 857.734,589.364 862,588.24 L862,584 L866,584 L866,588.24 C866.454,588.35 866.9,588.484 867.34,588.64 C871.416,590.362 873.322,595.064 871.6,599.14 C869.876,603.216 865.176,605.122 861.1,603.4 L857.26,609.9 L862,609.9 L862,605.9 L866,605.9 L866,609.9 L870.8,609.9 L868,605.14 C869.802,604.336 871.342,603.04 872.44,601.4 L877.46,609.9 L884,609.9 L884,613.9 Z" id="Compass"></path>
            </g>
        </g>
    </g>
</svg>