<?xml version="1.0" encoding="utf-8"?>
<!-- Generator: Adobe Illustrator 24.2.3, SVG Export Plug-In . SVG Version: 6.00 Build 0)  -->
<svg version="1.1" id="Layer_1" xmlns="http://www.w3.org/2000/svg" xmlns:xlink="http://www.w3.org/1999/xlink" x="0px" y="0px"
	 viewBox="0 0 48 48" style="enable-background:new 0 0 48 48;" xml:space="preserve">
<style type="text/css">
	.st0{fill-rule:evenodd;clip-rule:evenodd;fill:#FFFFFF;}
</style>
<path id="Compass" class="st0" d="M20,14.9c0,2.2,1.8,4,4,4s4-1.8,4-4c0-2.2-1.8-4-4-4S20,12.7,20,14.9L20,14.9z M44,33h-4.3l2.3,4
	v8h-2l-6.9-12H26v4h-4v-4h-7.1L8,45H6v-8l2.3-4H4v-4h6.6l6.2-10.6c-0.2-0.4-0.3-0.9-0.5-1.3c-1.1-4.3,1.4-8.7,5.7-9.8V3h4v4.3
	c0.5,0.1,0.9,0.2,1.3,0.4c4.1,1.7,6,6.4,4.3,10.5c-1.7,4.1-6.4,6-10.5,4.3L17.3,29H22v-4h4v4h4.8L28,24.2c1.8-0.8,3.3-2.1,4.4-3.7
	l5,8.5H44V33z"/>
</svg>
