<?xml version="1.0" encoding="UTF-8"?>
<svg width="327px" height="205px" viewBox="0 0 327 205" version="1.1" xmlns="http://www.w3.org/2000/svg" xmlns:xlink="http://www.w3.org/1999/xlink">
    <!-- Generator: Sketch 63.1 (92452) - https://sketch.com -->
    <title>Drone</title>
    <desc>Created with Sketch.</desc>
    <g id="Screens" stroke="none" stroke-width="1" fill="none" fill-rule="evenodd">
        <g id="Home" transform="translate(-531.000000, -5526.000000)" stroke="#FEFEFE">
            <g id="Fire-boundary-detection" transform="translate(0.000000, 5400.000000)">
                <g id="Drone" transform="translate(532.000000, 127.000000)">
                    <path d="M125.989871,0.00400564168 C124.411225,0.0828441941 123.269526,2.01812319 122.748009,3.5475911 C122.226492,5.07622914 122.636078,6.45548887 120.847665,6.49283344 C119.059251,6.53017802 97.5079177,7.53516209 86.1705217,8.80902713 C74.8331256,10.083722 60.7762137,11.8779215 59.156941,12.1675495 C57.5368392,12.4571774 57.6529161,13.2671398 59.2721888,13.4405846 C60.8914615,13.6148593 92.6492706,14.7152795 96.6406575,15.1202607 C100.632044,15.5252419 105.780055,16.1625894 108.440703,16.1625894 C111.10218,16.1625894 113.589542,15.4679802 115.729503,14.0206704 C117.869463,12.5733605 122.439576,11.0098676 122.439576,11.0098676 L122.670901,11.5310319 L123.191589,11.9932748 L122.208252,12.1675495 C122.208252,12.1675495 120.067462,12.3409943 118.853629,12.9194203 C117.638968,13.4995061 117.175489,14.0779321 117.175489,15.1202607 C117.175489,16.1625894 117.291566,20.3883358 117.291566,20.3883358 C117.291566,20.3883358 114.97749,21.3153112 114.97749,22.2995483 C114.97749,23.2837853 115.092738,24.6738335 115.092738,24.6738335 L114.340726,25.599979 L114.283516,31.0423288 L115.787541,30.9842372 C115.787541,30.9842372 116.770878,33.2423393 117.5801,33.5900588 C117.754215,34.4589427 118.159655,34.7477407 119.25824,35.2108135 C119.662851,35.6738863 120.010253,35.6157947 120.010253,35.6157947 C120.010253,35.6157947 120.010253,37.1792877 124.464289,37.4108241 C125.968314,38.974317 131.75226,45.3436422 131.75226,45.3436422 C131.75226,45.3436422 118.968877,52.4648382 111.912231,57.7918347 C106.300742,58.3702607 49.0342067,62.8283734 49.0342067,62.8283734 L48.9753392,62.3653006 L48.3974421,62.3653006 L47.7606774,62.6549285 L46.4879771,62.7711117 L46.4075524,62.5155088 L45.8454086,62.5503637 L45.318917,62.9022326 L44.2659337,62.954515 L44.2302816,62.6740158 L43.738613,62.7088707 L43.5628394,63.3943512 L39.244779,63.4466336 C39.244779,63.4466336 36.5202884,62.5387454 35.7094084,61.8449661 C35.3238673,58.6789759 34.7459702,57.7918347 34.7459702,57.7918347 L34.6680328,55.0117383 L33.1648371,53.4681625 L32.4708631,53.3909837 C32.4708631,53.3909837 30.9668382,50.3411765 27.7266346,48.2191747 C29.6170297,47.9104595 32.9335124,47.4465568 32.9724811,46.2507005 C33.0097915,45.0531844 27.3800621,39.6498389 24.0254399,35.6357118 C20.6708176,31.6215847 18.934639,28.2630623 18.2016963,27.8771684 C17.4687536,27.4912744 13.9599149,27.5294489 12.6490751,28.031526 C11.3382354,28.5336031 11.4153436,30.2705408 11.2992667,31.2738652 C11.1831898,32.2780194 10.6052927,36.5236829 12.3016736,40.151916 C13.9988836,43.7801492 16.4663467,46.0573386 17.4306141,46.5594157 C17.4306141,47.9104595 17.7390469,51.3835052 18.4330209,52.8897365 C16.2739907,53.0050897 11.8771638,54.1636015 11.8771638,56.246599 C11.8771638,58.3312563 12.3016736,63.1570056 12.3016736,63.1570056 C12.3016736,63.1570056 10.4892158,63.388542 8.98519088,65.7039058 C7.48116598,68.0200995 7.17273309,69.8723905 7.17273309,69.8723905 C7.17273309,69.8723905 5.86106419,69.9113949 6.16949708,71.0309023 C4.82051775,71.687337 5.28316708,72.844189 5.28316708,72.844189 C5.28316708,72.844189 2.04379261,73.8483432 0.886340153,74.311416 C-0.269454064,74.7753186 -0.385530958,76.3960733 1.08035439,76.7437928 C2.5445815,77.0915123 5.43821265,77.1678612 6.94140843,77.4765764 C8.44543333,77.7861214 12.263534,79.2135142 13.6904507,79.4068761 C13.8056985,79.8309445 14.1141314,79.9081233 14.1141314,79.9081233 C14.1141314,79.9081233 13.4201574,81.2209927 17.1992894,81.9927806 C18.0856194,83.1504625 20.4768034,84.0392635 24.2567646,84.0392635 C28.0350675,84.0392635 32.4318944,83.2666457 32.9724811,81.2981715 C34.4756768,80.8342688 35.7873457,80.1396597 36.2118555,79.1363354 C37.7150513,78.9819778 89.0434248,74.503948 89.0434248,74.503948 L71.112032,107.815311 L70.8798782,109.899968 L57.1131586,135.64532 L36.9058295,157.801443 L36.9058295,158.573231 L37.5226953,159.731743 L37.5998035,160.464526 L38.1785298,160.811416 L40.2604518,160.888595 L40.8002093,162.471175 L55.4549172,160.811416 L55.377809,159.692738 L85.0711076,111.984626 L86.4598848,110.247688 C86.4598848,110.247688 98.7996877,91.796977 108.479672,82.4176789 L110.600562,88.477459 C110.600562,88.477459 108.942321,89.1330638 109.019429,89.7131496 C109.096537,90.2915756 110.137913,91.0251891 111.487721,91.2567255 C111.912231,92.8003013 114.14837,99.5555205 114.14837,99.5555205 L122.131143,101.369637 C122.131143,101.369637 121.861679,101.755531 121.861679,102.527319 C121.861679,103.299937 121.822711,105.421939 121.822711,105.421939 C121.822711,105.421939 122.015067,106.039369 122.554824,106.271735 C121.899819,106.542276 114.649988,104.882517 113.72386,104.650981 C112.798561,104.418614 111.719046,104.226082 110.754779,104.727329 C109.790511,105.229407 105.663978,107.081698 104.430246,107.5456 C103.196515,108.008673 102.386464,110.054326 103.465979,111.636906 C102.271216,112.485873 101.769598,112.794588 101.769598,113.875921 C101.769598,114.956424 102.579649,141.319206 102.579649,142.67025 C102.579649,144.021294 103.273623,144.870261 104.815787,145.179806 C106.358781,145.488521 114.688127,147.572348 114.688127,147.572348 L114.688127,148.691856 C114.688127,148.691856 113.106994,150.120078 112.529097,150.505972 C111.950371,150.891866 112.296943,152.744987 113.72386,152.744987 L114.11023,152.976524 C114.11023,152.976524 114.340726,155.678611 114.456803,156.141684 C114.57205,156.604757 114.804204,156.565752 115.537147,156.488574 C116.26926,156.412225 118.737553,156.412225 120.318686,157.029655 C121.899819,157.647085 123.442812,158.573231 123.712277,158.766593 C123.981741,158.959125 124.368111,158.804767 125.023116,158.573231 C125.678951,158.341695 126.064492,158.110158 126.064492,158.110158 L131.347649,154.249559 L131.811127,153.516775 C131.811127,153.516775 132.659318,153.439596 133.237215,152.899345 C133.815941,152.359093 134.047266,152.088552 134.047266,152.088552 C134.047266,152.088552 143.071415,154.481925 144.383084,154.713461 C145.693924,154.944998 146.078636,155.099355 147.043732,154.17238 C148.046139,155.022177 150.089093,155.75579 151.554978,154.752466 C153.020863,153.748311 156.838135,149.849538 157.262645,149.425469 C157.686325,149.000571 157.957448,147.688531 157.995587,147.109276 C158.033727,146.53002 158.033727,118.08258 158.033727,116.578009 C158.033727,115.071777 155.990774,113.142308 153.676698,112.756414 C151.362622,112.36969 150.205169,112.060975 150.205169,112.060975 L150.552571,108.665108 L160.694375,106.078373 L161.582363,106.348914 L162.738158,107.583775 L163.510069,107.5456 L163.702425,107.236885 C163.702425,107.236885 164.704832,106.850991 164.704832,106.387088 C166.170717,106.271735 167.366309,105.499947 167.366309,104.882517 L167.366309,103.994546 C167.366309,103.994546 169.02455,103.569648 169.02455,102.064246 C169.02455,100.558845 168.484793,99.7480525 167.366309,99.2078009 C167.520526,98.0882935 167.520526,97.4708632 167.520526,97.4708632 L168.253468,97.2011523 L174.65428,129.469357 L175.618547,131.862729 L185.645103,193.697881 L188.152364,197.094577 L190.234286,199.179235 L192.894935,203 L200.183734,202.229042 L200.299811,201.611612 L201.070894,201.379245 L201.186141,200.877998 L199.412652,195.473823 L198.371277,190.263009 L190.735904,134.255272 L191.121446,132.017087 L188.653153,113.836917 L190.542719,114.91825 L190.581688,115.651033 L191.121446,116.191285 L191.275662,116.654358 C191.275662,116.654358 193.08812,117.851044 194.32268,118.08258 C195.170042,119.39545 199.104219,121.055209 203.500217,121.055209 C207.897044,121.055209 210.557692,119.588812 210.557692,119.588812 C210.557692,119.588812 215.724772,119.897527 216.573792,117.504154 C217.421982,115.110782 220.50714,112.602056 220.50714,112.602056 L220.738465,111.40537 C220.738465,111.40537 220.892682,104.070895 220.93165,103.801184 C220.96979,103.531473 220.043662,103.453464 220.043662,103.453464 C220.043662,103.453464 220.159739,100.944739 220.121599,99.5555205 C220.082631,98.1654723 217.9236,96.583722 216.882225,96.0044661 C216.959333,92.7239524 217.113549,91.0641934 217.113549,89.6741453 C217.113549,88.284927 215.493448,85.7753714 209.863718,84.8102215 C210.017935,83.4591777 210.287399,82.9969348 210.287399,82.9969348 L213.064953,81.645891 L216.959333,81.142984 C216.959333,81.142984 221.471408,86.5089849 226.792704,94.4600603 C232.11483,102.411136 240.868686,116.731536 243.066685,119.973876 C245.264684,123.217045 250.857103,131.746546 252.28319,133.213773 C252.360298,134.526643 252.476375,135.182247 252.476375,135.182247 L254.982807,137.459437 L267.747949,136.070218 L267.70898,134.988885 L268.056382,134.448634 L269.675655,133.946557 L269.675655,132.943232 L252.553484,116.654358 L240.983934,95.6185721 L240.907655,93.7654512 L233.040128,79.7545956 C233.040128,79.7545956 265.742306,76.859146 271.140711,76.2798901 C276.539945,75.7014641 291.811518,73.6939856 293.006281,73.1537341 C294.202702,72.6134825 293.161327,71.5321495 290.230385,71.5321495 C287.299444,71.5321495 278.391371,72.9221977 275.691754,73.2690873 C272.992137,73.6168068 256.680017,74.9388049 248.581166,75.6342439 C240.483145,76.328853 231.575072,77.1296868 231.575072,77.1296868 L223.55333,62.5387454 C223.55333,62.5387454 239.094368,61.6507743 249.776758,60.7246288 C260.459149,59.7984833 272.298163,58.6399715 272.298163,58.6399715 C272.298163,58.6399715 272.375271,61.4582423 281.514669,61.4582423 C287.145227,61.4582423 286.836794,59.6051214 286.836794,59.6051214 C288.996654,59.4125893 290.0372,58.6789759 290.153277,56.9030337 C292.466524,56.6333229 293.855301,55.861535 294.202702,54.5494955 C294.703491,54.4333123 294.549275,53.9694097 294.549275,53.9694097 C294.549275,53.9694097 299.716355,51.7312247 300.488266,51.3835052 C301.259348,51.0366156 300.565374,49.9552826 299.832432,49.6855717 C299.099489,49.415031 296.670165,49.1453202 296.670165,49.1453202 C296.670165,49.1453202 296.863351,48.3345279 296.091439,47.9486339 C296.014331,47.2921993 295.821975,46.7129434 295.050064,46.5204113 C294.741631,45.4780827 294.395058,44.3195709 293.700255,43.5876172 C298.791056,45.2083718 315.065037,50.2639977 320.849812,52.5801914 C326.634586,54.897215 326.711695,50.11047 318.921277,45.1693675 C311.131688,40.2290948 294.163734,30.2705408 291.078576,29.2672165 C287.994247,28.2630623 286.836794,28.031526 286.836794,26.178405 C286.836794,24.326114 285.370909,19.7709054 282.517076,19.6945565 C279.664071,19.6173777 278.275294,24.5576504 278.275294,24.5576504 C278.275294,24.5576504 257.83747,13.2090482 256.293647,12.5144391 C254.751482,11.8198299 254.365941,11.5882936 252.977164,11.5882936 C251.589216,11.5882936 249.507294,11.743481 251.435,13.2870569 C253.363534,14.8306328 263.775632,22.0107502 270.100164,24.5576504 C276.423868,27.1045506 277.658428,28.1858835 277.658428,28.1858835 L277.272887,31.8912955 L277.889753,32.3543683 L277.736366,32.9726285 C277.736366,32.9726285 271.411833,32.3543683 271.179679,35.7510651 C270.948355,39.1477618 270.871247,41.2324191 270.871247,41.2324191 C270.871247,41.2324191 267.786918,42.2365733 267.786918,44.0108557 L267.863197,44.6291159 L266.859961,45.2473762 L264.70093,45.4009039 L264.238281,44.7062947 L259.688067,45.0921887 L259.224588,45.7867978 L206.469298,49.9552826 L205.852433,49.029137 L211.020342,43.6249617 L211.406712,37.604186 L208.012292,31.5054015 L199.991378,33.5900588 L189.270019,32.1228319 L189.192911,30.579256 L187.188097,28.7261351 L161.890796,31.7369379 C161.890796,31.7369379 148.546928,36.4456742 146.233681,37.7585436 C144.459363,36.2149677 137.750119,29.5759317 137.750119,29.5759317 L138.289047,28.8804927 L138.289047,22.1642779 C138.289047,21.2381324 135.58943,20.0796206 135.58943,20.0796206 L135.58943,14.9078116 C135.58943,13.4405846 132.736426,11.9741875 129.651268,11.9741875 C130.499458,11.5111148 130.42235,10.2762541 130.42235,10.2762541 L132.11956,9.65882373 C132.11956,9.65882373 154.177487,7.9600604 159.421675,7.11026379 C164.666692,6.26129706 178.781643,5.64386672 184.797742,5.25797275 C190.813013,4.87207878 194.129495,3.56003929 184.797742,4.40900602 C175.46516,5.25797275 164.204043,5.64386672 157.725294,5.7982243 C151.246545,5.95258189 137.826398,6.95673608 134.742069,7.26545126 C131.656082,7.57416643 130.42235,6.49283344 130.191026,5.48950913 C129.959701,4.48618482 129.192764,-0.155331222 125.989871,0.00400564168 Z" id="Stroke-1" stroke-width="0.75"></path>
                    <path d="M18,46.6800947 C18.1691745,41.6592373 20.1496543,38.0740313 22.4701098,38.0008104 C24.7913786,37.9275896 27.6583977,42.829899 28,47" id="Stroke-3"></path>
                    <path d="M36.3589223,62.5317759 C36.8318719,65.5330956 37.1785365,71.2642504 36.9012048,73.2221035 C36.6238731,75.1799567 33.7143667,75.8078687 31.5666971,75.9477748 C29.4190274,76.087681 28.379859,76.0177279 27.5486894,74.8301913 C26.7166944,73.641822 23.807188,70.4955995 20.5518424,67.6999751 C17.294846,64.9043507 15.0778434,63.6460283 14.038675,63.296263 C12.9995067,62.9464976 12.3755104,61.7581283 13.9693421,60.2907794 C15.5631738,58.8225978 19.1627078,56.3209428 20.1358449,55.1184163 C20.6005405,54.5421363 20.4131765,54 20.4131765,54" id="Stroke-5"></path>
                    <path d="M13.0003455,56 C12.9766261,56.7365292 14.1761491,57.8736529 16,58" id="Stroke-7" stroke-width="0.25"></path>
                    <path d="M16.5006714,58 C15.065797,57.9076589 14.0222521,56.5540467 14,56 L18,56.3074416" id="Stroke-9" stroke-width="0.25"></path>
                    <path d="M18.1035,55 C18.1035,55 18.2735,54.1319121 18.8965,54" id="Stroke-11" stroke-width="0.25"></path>
                    <line x1="18" y1="54.571" x2="16" y2="54.429" id="Stroke-13" stroke-width="0.25"></line>
                    <path d="M13,63 C13,63 13.0370042,63.857268 13.1259719,64.4772329 C13.2149395,65.0980736 13.5723846,65.7670753 14.1967326,66.1392294 C14.8210806,66.5122592 16.828757,67.8511384 21,68" id="Stroke-15" stroke-width="0.25"></path>
                    <path d="M13,66 L13,66.5472121 C13,66.5472121 14.5951069,68.6906697 22,69" id="Stroke-17" stroke-width="0.25"></path>
                    <polyline id="Stroke-19" stroke-width="0.25" points="7 71 7.15316099 71.6954715 15.5336063 74.400914 22.7338111 75.0581637 23 79 14.0101868 78.6136269"></polyline>
                    <polyline id="Stroke-21" stroke-width="0.25" points="6 73 6.07474382 73.4128284 8.01888688 74.8410099 10 75 9.92525618 73.2859092"></polyline>
                    <path d="M9.8339288,74 L14,77 C11.7241291,76.2987992 1.23140232,75.6755096 1,75.0907568" id="Stroke-23" stroke-width="0.25"></path>
                    <path d="M7.0028639,70 C7.0028639,70 6.92400858,70.6981001 7.59385481,70.8813119 C8.26454895,71.0653135 14.2982525,72.7544947 15.0876535,72.9756124 C15.8762067,73.1959404 21.1603607,73.4525948 22.3041868,73.4525948 C23.4488607,73.4525948 24,74.3710229 24,75.4363364 L24,79.2932607 C24,79.6968005 23.8422894,80.0640138 21.7912033,79.9905711 C19.740965,79.9179182 13.6674099,79.072143 13.6674099,79.072143" id="Stroke-25" stroke-width="0.25"></path>
                    <path d="M36,79 L33.8116393,79.2857143 C33.8116393,79.2857143 30.5096994,81 23.9817643,81 C17.4546546,81 14,79.7142857 14,79.7142857" id="Stroke-27" stroke-width="0.25"></path>
                    <path d="M17,82.5500892 C17,82.5500892 25.1375177,83.8645197 33,82" id="Stroke-29" stroke-width="0.25"></path>
                    <path d="M24,78 C24,78 29.498751,77.6331361 32.7527061,76.7889546 C36.0058285,75.9455621 37.438801,75.5053254 40.2264779,75.2110454 C43.0149875,74.9175542 108,70 108,70" id="Stroke-31" stroke-width="0.25"></path>
                    <path d="M36,67 C37.0571335,66.5707704 38.3571455,64.999744 38.9259008,64.8569235 C39.494656,64.713335 40.4696651,64.5712823 39.7384083,64" id="Stroke-33" stroke-width="0.25"></path>
                    <path d="M40.6118663,64 C40.6118663,64 41.9954451,69.1634089 38,72 L108,66.4722439" id="Stroke-35" stroke-width="0.25"></path>
                    <path d="M36,63 C37.2826262,63.9765 37.2826262,65.02275 36.2787015,66" id="Stroke-37" stroke-width="0.25"></path>
                    <line x1="44" y1="63.7795" x2="49" y2="63.2205" id="Stroke-39" stroke-width="0.25"></line>
                    <path d="M20,52 C21.2495801,51.5256011 23.2364797,50.5598303 25,49" id="Stroke-41" stroke-width="0.25"></path>
                    <polyline id="Stroke-43" stroke-width="0.25" points="72 108 73.5071305 110.333599 76.6737252 111 87 110.333599"></polyline>
                    <polyline id="Stroke-45" stroke-width="0.25" points="85 112.050612 75.1085534 113 72.3700631 112.468571 71 110"></polyline>
                    <polyline id="Stroke-47" stroke-width="0.25" points="96 74 75.7682341 110.989096 74.9124871 112.993007 49 160"></polyline>
                    <line x1="56" y1="160" x2="41" y2="161" id="Stroke-49" stroke-width="0.25"></line>
                    <polyline id="Stroke-51" stroke-width="0.25" points="93 74 73.377528 110.072086 72.9913569 112.238957 47.5746582 158.296626 49.5835781 159.45745 39 160 47.5746582 158.296626"></polyline>
                    <path d="M121.412223,8 C121.712098,9.02948403 122.696923,10.2817363 124,10.6470106 C121.975219,11.4193284 119.650564,12.1539722 118,13" id="Stroke-53" stroke-width="0.25"></path>
                    <path d="M124,12.2011136 C124.940316,12.7081136 127.557951,13.3091136 130,12.1781136" id="Stroke-55" stroke-width="0.25"></path>
                    <polyline id="Stroke-57" stroke-width="0.25" points="121.967661 13.096 122 13.904 120 13.859"></polyline>
                    <path d="M134,14.6269371 C128.143939,17.4446653 120.132997,15.2528774 119,14 L122.362795,14 L122.627104,14.3139669 L121.871212,14.8950548" id="Stroke-59" stroke-width="0.25"></path>
                    <polyline id="Stroke-61" stroke-width="0.25" points="133.70854 14 131 14.4240378 134 15"></polyline>
                    <path d="M123,13 C123.072339,13.7037954 124.046504,14 126.897462,14 C129.747617,14 130,13.0371287 130,13.0371287" id="Stroke-63" stroke-width="0.25"></path>
                    <polyline id="Stroke-65" stroke-width="0.25" points="130.2985 13 130.7015 13.2161349 130.7015 14"></polyline>
                    <path d="M126,15.8123827 C126,15.8123827 126.513386,15.3633827 127.284284,15.2283827 C128.055181,15.0933827 129.045984,15.3183827 130,15.5423827" id="Stroke-67" stroke-width="0.25"></path>
                    <path d="M118,18.2591828 C120.012316,19.5930664 122.535658,20 127.877383,20 C133.219108,20 136,18 136,18" id="Stroke-69" stroke-width="0.25"></path>
                    <path d="M118,20.3308137 C118,20.3308137 118.062792,20.7665629 118.136184,21.4450867 C118.209577,22.1244998 120.113714,24 127.654419,24 C135.19431,24 136,21.1658515 136,20.7265451 C136,20.2872388 135.996738,20 135.996738,20" id="Stroke-71" stroke-width="0.25"></path>
                    <path d="M117,22.4225438 C117.075889,22.999051 119.345804,25.1109149 127.0679,24.9954424 C134.95105,24.8774038 136,22 136,22" id="Stroke-73" stroke-width="0.25"></path>
                    <path d="M116.964655,21.040107 C116.107753,21.6800357 115.212655,22.5606061 117.188845,23.5606061 C119.163374,24.5606061 123.263553,25 127.624456,25 C131.985359,25 135.04181,23.7611408 136.383627,23 C137.725443,22.2406417 136.458356,21 136.458356,21" id="Stroke-75" stroke-width="0.25"></path>
                    <polyline id="Stroke-77" stroke-width="0.25" points="138 30 137.033068 28.8233463 132 26"></polyline>
                    <path d="M120,29 C120,29 121.976667,30.1769996 124.185833,32.3530999 C126.395,34.5292002 135,44 135,44" id="Stroke-79" stroke-width="0.25"></path>
                    <polyline id="Stroke-81" stroke-width="0.25" points="115.081 25 115.151 29.4037349 115.919 31"></polyline>
                    <path d="M115,30 C116.120876,31.3958333 117.301814,32.035 119.366764,32.1516667 C121.432559,32.2675 124.088824,35.2325 124.088824,35.2325 L133,45" id="Stroke-83" stroke-width="0.25"></path>
                    <line x1="132" y1="27" x2="144" y2="39" id="Stroke-85" stroke-width="0.25"></line>
                    <path d="M118,34 C119.235939,34.6055604 121.470071,35.2128584 121.470071,35.2128584 C121.470071,35.2128584 123.000241,35.6967854 125,38" id="Stroke-87" stroke-width="0.25"></path>
                    <path d="M120,36 C120,36 121.393571,36.9472097 124,37" id="Stroke-89" stroke-width="0.25"></path>
                    <path d="M189,31 L165.434307,34.4797657 C144.294312,40.51075 116.454259,60.3460797 116.454259,60.3460797 L111.833844,58.2587191 L109.523222,63.0145097 L107.213428,73.6084262 L89,75" id="Stroke-91" stroke-width="0.25"></path>
                    <line x1="162" y1="32" x2="166" y2="34" id="Stroke-93" stroke-width="0.25"></line>
                    <path d="M169.697033,34 L184.745733,36.4665689 L201,34 L189.995221,36.5827022 C189.995221,36.5827022 169.114314,45.3903141 145.083214,64.413443 L141,65 C141,65 159.548358,49.7343703 185.795798,37.1709423" id="Stroke-95" stroke-width="0.25"></path>
                    <polyline id="Stroke-97" stroke-width="0.25" points="151 46 171.510101 36 179 37.136086 177.271625 39.5222738"></polyline>
                    <path d="M184,37 C174.126564,40.7524522 150.429485,54.5136168 136.490125,66 C129.403895,65.0904134 115,62.7015261 115,62.7015261 C115,62.7015261 141.485118,45.4153059 162.858692,40.183553" id="Stroke-99" stroke-width="0.25"></path>
                    <path d="M130.156268,62 C136.46713,57.598196 154,47.463173 154,47.463173 L151.194707,47 C141.493035,51.864147 127,61.594101 127,61.594101 L130.156268,62 Z" id="Stroke-101" stroke-width="0.25"></path>
                    <polyline id="Stroke-103" stroke-width="0.25" points="115.030273 63 107 79.1565451 107.465402 80.3020791 109.443779 82.1357545 124.572686 85 131.090819 69.4166325 134 69.3024896"></polyline>
                    <polyline id="Stroke-105" stroke-width="0.25" points="140.540971 65 141 66.1382225 138.708139 67.9580741 132.749795 83.8858516 128.739244 84 134.926693 68.1855555 116.021101 65 114.989723 65.7965927 108 80.2453332"></polyline>
                    <polyline id="Stroke-107" stroke-width="0.25" points="110 82 116.505741 66 132 69.0366185"></polyline>
                    <line x1="115" y1="65.081" x2="116" y2="65.919" id="Stroke-109" stroke-width="0.25"></line>
                    <path d="M141.232347,83 L141,81.2839261 L144.834147,63.6656767 L155.293105,67.7840901 C155.293105,67.7840901 167.377663,56.1142956 192.593589,42.0429816 L212,38" id="Stroke-111" stroke-width="0.25"></path>
                    <line x1="202" y1="49" x2="211" y2="43" id="Stroke-113" stroke-width="0.25"></line>
                    <path d="M202,50.2042733 L201.420846,46.6426219 L198.985407,44 L191.449755,45.4930114 C191.449755,45.4930114 175.797635,52.9630091 156.087282,69.9683508 L154,78.9313599 L154.116329,81" id="Stroke-115" stroke-width="0.25"></path>
                    <path d="M161,81 L161,78.9251269 L162.394246,72.1256225 C162.394246,72.1256225 174.008527,60.1389355 195.146967,48.4983359 L202,47" id="Stroke-117" stroke-width="0.25"></path>
                    <line x1="192" y1="42" x2="189" y2="36" id="Stroke-119" stroke-width="0.25"></line>
                    <line x1="192" y1="45" x2="195" y2="48" id="Stroke-121" stroke-width="0.25"></line>
                    <line x1="156" y1="70" x2="162" y2="72" id="Stroke-123" stroke-width="0.25"></line>
                    <polyline id="Stroke-125" stroke-width="0.25" points="155 68 152.153994 80.8129973 141 82"></polyline>
                    <line x1="152.43" y1="80" x2="152.57" y2="82" id="Stroke-127" stroke-width="0.25"></line>
                    <line x1="133.6395" y1="85" x2="133.3605" y2="84" id="Stroke-129" stroke-width="0.25"></line>
                    <line x1="129.2905" y1="83" x2="129.7095" y2="85" id="Stroke-131" stroke-width="0.25"></line>
                    <path d="M169.110475,80 L165,75.3250378 C165,75.3250378 166.484452,69.3967739 171.62275,65.8631822 C176.761047,62.3295905 193.545827,51.4992341 195.258592,50.3594976 C196.972177,49.218944 198,51.1569046 198,51.1569046" id="Stroke-133" stroke-width="0.25"></path>
                    <line x1="194" y1="50.8955" x2="207" y2="50.1045" id="Stroke-135" stroke-width="0.25"></line>
                    <path d="M187.648182,78 C187.648182,78 181.557553,72.0388407 180.743971,71.3338117 C179.930388,70.6287827 179.234221,69.688744 181.789887,68.2778436 C184.346385,66.8669433 194.455796,59.6970425 196.314462,58.8749298 C198.173961,58.0519748 201.891293,58.1699008 203.634208,57.8169651 C205.377957,57.4648718 266.844673,52.6450677 270.214754,52.4109004 C273.584003,52.1758907 278,51 278,51" id="Stroke-137" stroke-width="0.25"></path>
                    <path d="M181,72 C181,72 193.231015,63.6764531 195.192476,62.6210953 C197.153937,61.5657374 198.769744,61.5657374 200.731205,61.3313068 C202.692665,61.096036 271.230507,55 273.654217,55 C276.077101,55 281.038638,56.5242191 287.384443,55.2344306 C287.500212,56.7586497 287.539078,57.3056544 290,56.9149367" id="Stroke-139" stroke-width="0.25"></path>
                    <path d="M273,58.7484317 C275.672581,58.6122201 278.619772,58.6122201 281.213773,58.8172699 C283.807774,59.020855 286.637516,59.3276974 291,58" id="Stroke-141" stroke-width="0.25"></path>
                    <path d="M273,58 C275.253978,59.7534571 279.169319,60.6794166 287,59.4130309" id="Stroke-143" stroke-width="0.25"></path>
                    <path d="M288,56 C288,56 288,53.3724315 288.123498,52.7739726 C288.246113,52.177226 287.753887,51.6994863 290.2159,51.3416096 C292.677914,50.9828767 294.277208,50.4246575 296,47" id="Stroke-145" stroke-width="0.25"></path>
                    <path d="M290,56 L290.233278,52.9822348 C290.233278,52.9822348 293.382943,52.7659629 294.899666,51.6884655 C296.416388,50.6109681 297,50 297,50" id="Stroke-147" stroke-width="0.25"></path>
                    <polyline id="Stroke-149" stroke-width="0.25" points="295 51.2853242 295 53 300 51"></polyline>
                    <path d="M278,32 C278,32 279.836889,34 283,34" id="Stroke-151" stroke-width="0.25"></path>
                    <path d="M282.210399,32 C282.210399,32 283.777051,34.8144828 282.322704,36.4557742 C280.866752,38.097906 279.636212,40.6770782 284.225469,41.4981441 C288.813923,42.31921 294,44 294,44" id="Stroke-153"></path>
                    <path d="M276.021398,34 C273.919427,34.5123967 272.70233,36.1781451 276.242616,37.2029385 C279.782903,38.2277319 281,37.9715335 281,37.9715335" id="Stroke-155" stroke-width="0.25"></path>
                    <line x1="274" y1="35.5" x2="277" y2="35.5" id="Stroke-157" stroke-width="0.25"></line>
                    <path d="M277,34 C277,34 279.081615,35.2657929 283,34.9491558" id="Stroke-159" stroke-width="0.25"></path>
                    <path d="M271,39 C272.789007,41.2839982 280.18351,42.2247513 284,41.9551394" id="Stroke-161" stroke-width="0.25"></path>
                    <path d="M271.112236,42 C271.112236,42 270.411433,44.1959378 272.512168,45.1841492 C274.612903,46.1723606 278.930617,47.2699361 283.364573,46.94027 C287.79853,46.610604 291.300034,46.0622096 292,43.6475435" id="Stroke-163" stroke-width="0.25"></path>
                    <path d="M271.056522,42 C269.793482,42.7356977 268.874607,44.4532046 273.124813,45.6802463 C277.375842,46.9055301 287.601201,48.0095161 293,45.4341348" id="Stroke-165" stroke-width="0.25"></path>
                    <path d="M183,74 C183,74 192.034194,67.9788775 194.350015,66.7051147 C196.666667,65.4313518 198.519324,65.5466958 203.731997,64.9683162 C208.94384,64.3891068 224,63 224,63" id="Stroke-167" stroke-width="0.25"></path>
                    <path d="M216,79.8698701 L209,72 C211.000228,75.1973 210.444432,76.4275731 211.110909,78.1487216 C211.777386,79.8698701 212.888977,80.2391283 216,79.8698701 Z" id="Stroke-169" stroke-width="0.75"></path>
                    <path d="M206,69.8973428 L202.095193,67 L201.858616,67.7802381 L198.782256,69.785538 L197.36194,70.0091477 L195.824608,71.1232031 L194.878297,71.1232031 L194.878297,72.4600697 L187,78 C187,78 195.824608,77.9201394 197.36194,77.9201394 C198.900968,77.9201394 199.019681,77.1399013 199.374124,76.0258458 C199.728567,74.9117903 201.031017,69.785538 206,69.8973428 Z" id="Stroke-171" stroke-width="0.75"></path>
                    <path d="M187,78 C174.856742,78.5164481 143.984684,83.2154353 130.621239,85.1430478 C117.25862,87.0723875 114.187512,87.4333831 111,89" id="Stroke-173"></path>
                    <path d="M112,91.1886846 C117.544913,91.7773257 133.016646,92.2494209 143.021,92.131186 C153.025354,92.0137956 166.403676,93.5457826 175.128306,93.8987984 C183.852936,94.2526587 186.876752,93.8987984 192.461682,89.1854468 C198.044945,84.4720952 202,84 202,84" id="Stroke-175"></path>
                    <path d="M199,85 C199,85 200.559143,86.8704836 204.639747,86.9946466 C208.71949,87.1188095 210,85.0419832 210,85.0419832" id="Stroke-177" stroke-width="0.25"></path>
                    <path d="M191.58079,89 C191.58079,89 191.1179,95.6496656 191.002798,97.0501672 C190.886869,98.4498328 194.35399,103 204.983902,103 C215.613814,103 217,97.5167224 217,97.5167224 L216.92299,95.7667224" id="Stroke-179" stroke-width="0.25"></path>
                    <path d="M190.115758,97 C188.956373,98.231312 187.914088,100.446086 191.275143,102.292172 C194.635368,104.13914 198.691556,105 206.455949,105 C214.219513,105 217.440212,102.786108 218.508242,101.553914 C219.840373,100.015656 218.04399,97.984344 218.04399,97.984344" id="Stroke-181" stroke-width="0.25"></path>
                    <path d="M191,93 C192.611035,94.8184188 198.47804,97 205.49602,97 C212.514,97 217,93.3631625 217,93.3631625" id="Stroke-183" stroke-width="0.25"></path>
                    <path d="M194.285232,89.0008659 L199.756719,89.4364818 C199.94736,89.4513113 200.058933,89.670973 199.967566,89.8479999 L198.920358,91.8546138 C198.859739,91.9723228 198.730595,92.0279334 198.610237,91.9862255 C197.868757,91.7276364 195.317505,90.776696 194.078777,89.4772629 C193.90395,89.2946749 194.041,88.9814022 194.285232,89.0008659 Z" id="Stroke-185" stroke-width="0.25"></path>
                    <path d="M204.110189,91.3879548 L204.740701,90.876546 C205.719878,90.0840119 206.94235,89.8128555 208.102285,90.1288723 L210.799949,90.8635863 C211.069801,90.9373568 211.065517,91.385961 210.793952,91.4477687 C209.434412,91.7528196 206.96805,92.1635417 204.24126,91.9322613 C203.998822,91.9113264 203.910585,91.5494524 204.110189,91.3879548 Z" id="Stroke-187" stroke-width="0.25"></path>
                    <path d="M199.019589,86 C198.795849,86.5713311 200.4735,88 204.837639,88 C209.201778,88 210.13443,87.3010239 209.98527,86.2853242" id="Stroke-189" stroke-width="0.25"></path>
                    <path d="M211.172797,88.675564 L213.46937,88.0473221 C214.001423,87.9022332 214.59559,88.0980674 214.845679,88.5347635 C214.976445,88.7627603 215.019761,89.0007632 214.991973,89.2401955 C214.924139,89.812689 214.218004,90.1528974 213.609943,89.9320478 C212.675786,89.5911248 211.75307,89.2787906 211.157269,89.0793828 C210.939871,89.0071957 210.950496,88.7363155 211.172797,88.675564 Z" id="Stroke-191" stroke-width="0.25"></path>
                    <path d="M190,106.856944 C190,106.856944 193.003974,108.786519 195.314915,109.127368 C197.625856,109.468216 206.925922,111 208.65892,111 C210.391919,111 211.315964,110.886926 213.222842,109.978268 C215.128892,109.070424 219.788861,106.478675 220,104" id="Stroke-193" stroke-width="0.25"></path>
                    <path d="M220,108 C220,108 216.788458,110.204884 215.154237,111.099309 C213.520015,111.993735 210.600507,112.648964 208.907712,112.53022 C207.214916,112.410621 200.559209,111.159109 196.764434,110.682423 C192.96966,110.204884 189.23346,108.238343 189.23346,108.238343 L189,112.708763 C189,112.708763 206.844225,119.601908 210.970362,120" id="Stroke-195" stroke-width="0.25"></path>
                    <polyline id="Stroke-197" stroke-width="0.25" points="196 114 204.942487 114 205 112"></polyline>
                    <path d="M205,113 C205,113 205.243796,114.694878 207.072702,114.945871 C208.902482,115.196864 209.877665,114.568932 210,113.18802" id="Stroke-199" stroke-width="0.25"></path>
                    <line x1="206.43" y1="115" x2="206.57" y2="113" id="Stroke-201" stroke-width="0.25"></line>
                    <path d="M215.386643,117.158027 L215.795083,112.554149 L220,111.574969 C220,111.574969 217.197001,116.352081 216.262947,117.101108 C215.328893,117.848485 212.583644,118.366535 209.664307,117.676077 C206.744969,116.985619 196,113.877321 196,113.877321 L196.117175,111" id="Stroke-203" stroke-width="0.25"></path>
                    <path d="M206,112.342627 C206,112.342627 207.798757,113 211.116624,113 C214.433686,113 215.44589,111.410367 215.44589,111.410367 L220,109" id="Stroke-205" stroke-width="0.25"></path>
                    <path d="M191,115 C194.836132,117.243295 200.789003,118.320076 203,117.916766" id="Stroke-207" stroke-width="0.25"></path>
                    <path d="M192,115 C195.362637,117.487488 200.852721,118.561888 205,117.713549" id="Stroke-209" stroke-width="0.25"></path>
                    <path d="M195,118 C195,118 200.918587,121.279471 210,119.439546" id="Stroke-211" stroke-width="0.25"></path>
                    <line x1="199.709" y1="65" x2="199.291" y2="69" id="Stroke-213" stroke-width="0.25"></line>
                    <line x1="196.0815" y1="71" x2="196.9185" y2="66" id="Stroke-215" stroke-width="0.25"></line>
                    <line x1="195.221" y1="71" x2="195.779" y2="66" id="Stroke-217" stroke-width="0.25"></line>
                    <line x1="182" y1="94" x2="187" y2="99" id="Stroke-219" stroke-width="0.25"></line>
                    <line x1="179" y1="94" x2="188" y2="104" id="Stroke-221" stroke-width="0.25"></line>
                    <polyline id="Stroke-223" stroke-width="0.25" points="188.912003 113.745308 186.670232 108.780017 187.133215 105.431755 176 94 181.257398 133.722329 181.875817 136.185114 191 197 188.061676 195.768608"></polyline>
                    <path d="M206,70 C207.420332,70.1942675 209,72 209,72" id="Stroke-225" stroke-width="0.25"></path>
                    <path d="M216,79 C216,79 224.13605,77.6469534 232,77" id="Stroke-227"></path>
                    <line x1="222" y1="63" x2="230" y2="78" id="Stroke-229" stroke-width="0.25"></line>
                    <path d="M208,71 C208,71 214.640744,76.6080564 217,79" id="Stroke-231" stroke-width="0.25"></path>
                    <line x1="217" y1="81" x2="233" y2="80" id="Stroke-233"></line>
                    <path d="M218,81 C221.928215,85.0432054 226.624723,91.3618969 231.663249,99.026952 C236.700942,106.693653 251.900775,130.28135 256,135.673388 L255.381863,137" id="Stroke-235" stroke-width="0.25"></path>
                    <polyline id="Stroke-237" stroke-width="0.25" points="253.119328 116.438231 263 133.735642 261.537815 135 239.688235 96.2991029 239.430252 94.7810492 231 80"></polyline>
                    <polyline id="Stroke-239" stroke-width="0.25" points="230 96 240.078767 94.9835815 242 94"></polyline>
                    <polyline id="Stroke-241" stroke-width="0.25" points="242 96 240.280773 96.8873518 231 98"></polyline>
                    <polyline id="Stroke-243" stroke-width="0.25" points="262 133.6745 269.321763 133.7765 270 133.2235"></polyline>
                    <polyline id="Stroke-245" stroke-width="0.25" points="256 136 262.049514 135.694444 268 134"></polyline>
                    <polyline id="Stroke-247" stroke-width="0.25" points="172 94 177.928561 133.635531 178.709363 135.958222 187.758615 196.496301 194 203"></polyline>
                    <polyline id="Stroke-249" stroke-width="0.25" points="188 168.156362 195.579349 201 200 200.374551 192.579349 168"></polyline>
                    <polyline id="Stroke-251" stroke-width="0.25" points="187 110 190.281263 132.899029 190.125052 135.819128 197 183"></polyline>
                    <polyline id="Stroke-253" stroke-width="0.25" points="191 134 190.084996 135.555732 182 136"></polyline>
                    <polyline id="Stroke-255" stroke-width="0.25" points="191 132.316107 189.876133 133.158054 181.182477 134 178.334542 133.579027 175 130"></polyline>
                    <polyline id="Stroke-257" stroke-width="0.25" points="165 93 156.020552 98.7386461 145.493353 100.811482 140.849269 99.6949443 134.811379 104 122 101.369323"></polyline>
                    <polyline id="Stroke-259" stroke-width="0.25" points="127.842001 92.0691251 131 102 115.368711 98.1800537 113 91"></polyline>
                    <line x1="131" y1="92" x2="135" y2="104" id="Stroke-261" stroke-width="0.25"></line>
                    <polyline id="Stroke-263" stroke-width="0.25" points="130 92 133 101.701588 130.14996 102"></polyline>
                    <line x1="144" y1="92" x2="146" y2="101" id="Stroke-265" stroke-width="0.25"></line>
                    <line x1="155" y1="93" x2="156" y2="99" id="Stroke-267" stroke-width="0.25"></line>
                    <line x1="168" y1="93" x2="169" y2="97" id="Stroke-269" stroke-width="0.25"></line>
                    <polygon id="Stroke-271" stroke-width="0.25" points="151 103.375207 151 105.000708 154.171526 106 158 104.875089 156.686932 103.874852 156.686932 102.875561 153.405501 102"></polygon>
                    <path d="M122.7667,106 L123.381231,106.484335 L122,109.969106 L122.125414,110.519376 L122.438951,112.354152 C122.438951,112.354152 122.753323,112.781506 123.632896,113.148624 C124.512469,113.514928 126.962232,114.677332 131.797376,113.453877 C136.633357,112.231236 151,108.347601 151,108.347601" id="Stroke-273" stroke-width="0.25"></path>
                    <path d="M158.025315,100.043192 C158.025315,100.043192 157.777575,100.951753 158.83212,101.374996 C159.886665,101.799851 163.192339,102.474621 165.965372,101.496729 C168.198332,100.709094 167.995186,99 167.995186,99" id="Stroke-275" stroke-width="0.25"></path>
                    <polyline id="Stroke-277" stroke-width="0.25" points="141 109 144.161374 107.000296 145.073761 106.933728 145.803994 106 150 106.533432"></polyline>
                    <line x1="134" y1="111" x2="142" y2="106" id="Stroke-279" stroke-width="0.25"></line>
                    <line x1="136" y1="106.1615" x2="140" y2="106.8385" id="Stroke-281" stroke-width="0.25"></line>
                    <path d="M133.282628,106.520561 C133.220969,108.435895 132.541897,111.181802 128.403337,110.990523 C124.266421,110.798395 123.895644,108.180007 124.018963,106.520561 C125.254611,107.351134 129.329868,107.541562 131.862002,106.903118 C134.394137,106.264673 168,97 168,97" id="Stroke-283" stroke-width="0.25"></path>
                    <path d="M122,110.520355 C123.498117,111.981196 127.741534,112.346608 131.174822,111.67736 C131.174822,111.67736 166.189039,102.303835 167,102" id="Stroke-285" stroke-width="0.25"></path>
                    <path d="M105.003824,110.943029 C104.880407,107.482909 107.785644,108.780762 107.785644,108.780762 L112.853149,106 L122,107.853842 L119.960327,109.150873 L116.746547,108.5332 L116.190347,108.904132 L115.51073,111.128907 L113.039098,113.043611 C113.039098,113.043611 112.235241,114.464012 112.357836,116.194483 C112.976567,117.305637 115.016239,120.271454 115.016239,120.271454 L115.44244,147" id="Stroke-287" stroke-width="0.25"></path>
                    <line x1="104" y1="112" x2="113" y2="107" id="Stroke-289" stroke-width="0.25"></line>
                    <path d="M139,112 L149.740196,114.262908 C149.740196,114.262908 147.837418,115.519428 147.468954,115.895882 C147.101307,116.273173 147.346405,117.404209 148.880719,117.718757 C150.415033,118.033306 151.82598,118.849793 152.010621,120.546346 C152.194444,122.2429 153.053922,122.494706 154.281046,121.866446 C155.50817,121.237349 156,120.671831 156,120.671831 C156,120.671831 155.876634,144.111541 155.815359,145.24174 C155.754085,146.373613 155.754085,147.064615 154.772059,148.06933 C153.79085,149.074881 153.177288,149.640398 152.624183,150.081268 C152.071895,150.520465 151.82598,151.463273 151.764706,152.406082 C151.703431,153.34889 150.906046,154.730895 148.635621,153.536281" id="Stroke-291" stroke-width="0.25"></path>
                    <line x1="147" y1="154" x2="152" y2="150" id="Stroke-293" stroke-width="0.25"></line>
                    <path d="M155.701174,121.280295 C156.758189,120.532807 157.052152,121.280295 156.992734,123.523588 C156.934098,125.766882 156.758189,144.400155 156.698771,145.708467 C156.640135,147.016778 156.465008,148.077033 155.407211,149.012015 C154.350196,149.946997 154.115651,150.444769 153.587144,150.88115 C153.057854,151.31753 153,152.128069 153,153" id="Stroke-295" stroke-width="0.25"></path>
                    <path d="M147,153 L147,124.335049 C147,122.490056 146.020174,122.243566 143.568568,121.813641 C141.116962,121.382897 125,118 125,118" id="Stroke-297" stroke-width="0.25"></path>
                    <path d="M124,114 C124.060311,115.256116 125.207827,117 128.470247,117 C131.731058,117 133,115.046144 133,114" id="Stroke-299" stroke-width="0.25"></path>
                    <line x1="134" y1="152" x2="122" y2="149" id="Stroke-301" stroke-width="0.25"></line>
                    <path d="M131,152 L125.320317,155.540662 C125.320317,155.540662 119.5293,157.435403 114,153.528466" id="Stroke-303" stroke-width="0.25"></path>
                    <polyline id="Stroke-305" stroke-width="0.25" points="128 151.36425 125.326216 153 122.237248 148.470487 122 120.97765 124.85172 118.271501 124.970344 115"></polyline>
                    <polygon id="Stroke-307" stroke-width="0.25" points="116 121 119.933452 121.859954 120 149 116.60071 148.140046"></polygon>
                    <polyline id="Stroke-309" stroke-width="0.25" points="117 121 117.477314 147.446507 120 148"></polyline>
                    <polyline id="Stroke-311" stroke-width="0.25" points="124 156 122.690863 155.499099 119.417228 150.812093 116.38133 150 114 152.249896"></polyline>
                    <polyline id="Stroke-313" stroke-width="0.25" points="115 151 115.693452 152.022088 122 154"></polyline>
                    <path d="M116.323873,112 L113.626261,113.481511 C113.626261,113.481511 112.847306,114.666404 113.02688,116.20708 C113.506545,117.096144 115.305485,119.347599 115.305485,119.347599 L118.782052,120 L121,118.221872" id="Stroke-315" stroke-width="0.25"></path>
                    <path d="M118.262511,110 L115.30244,114.31393 L114.594764,114.444444 C114.594764,114.444444 113.887088,114.967371 114.015601,116.208997 C114.980302,117.516749 116.589278,119.54233 116.589278,119.54233 L120,120" id="Stroke-317" stroke-width="0.25"></path>
                    <path d="M119.609843,110 C119.609843,110 118.631429,111.212748 119.153192,112.170538 L123,113" id="Stroke-319" stroke-width="0.25"></path>
                    <polyline id="Stroke-321" stroke-width="0.25" points="144 100.371203 137.550121 102 135 92"></polyline>
                    <path d="M122,102 C123.86,104.557091 127.2325,104.41192 132,102.96539" id="Stroke-323" stroke-width="0.25"></path>
                    <path d="M123,128.790578 C123.283264,126.752435 124.209612,124.934723 125.781597,123.667242 C129.666475,120.532877 136.027569,121.947029 139.989005,126.825347 C143.94959,131.703664 144.010837,138.199609 140.125958,141.333126 C138.426377,142.70404 136.252139,143.205098 134.0124,142.925319" id="Stroke-325" stroke-width="0.25"></path>
                    <path d="M135.602217,130.676366 C138.756415,134.393518 138.804693,139.34245 135.711479,141.730086 C132.617417,144.117722 127.552405,143.040216 124.39736,139.323065 C121.244009,135.606721 121.194883,130.658596 124.288945,128.270153 C127.383007,125.882517 132.447172,126.959215 135.602217,130.676366 Z" id="Stroke-327" stroke-width="0.25"></path>
                    <path d="M135.271988,142 L138.703624,139.412815 C141.807306,136.914377 141.758877,131.735781 138.594872,127.846974 C135.430868,123.957322 130.350108,122.830658 127.246427,125.329096 L123,128.724301" id="Stroke-329" stroke-width="0.25"></path>
                    <path d="M134.901348,131.446631 C137.661964,134.931435 137.704423,139.570889 134.996879,141.809272 C132.290152,144.047656 127.858142,143.038173 125.098342,139.553369 C122.337726,136.068565 122.296084,131.429111 125.002811,129.190728 C127.709538,126.952344 132.141548,127.961827 134.901348,131.446631 Z" id="Stroke-331" stroke-width="0.25"></path>
                    <path d="M134.351619,131.757031 C136.519679,134.545034 136.553516,138.256073 134.426722,140.047195 C132.299927,141.838317 128.817166,141.030337 126.649107,138.243194 C124.480222,135.455191 124.446384,131.743293 126.573179,129.952171 C128.700799,128.161908 132.182734,128.969888 134.351619,131.757031 Z" id="Stroke-333" stroke-width="0.25"></path>
                    <path d="M132.250896,134.148846 C133.23638,135.310831 133.251349,136.856706 132.284993,137.603073 C131.317806,138.349439 129.735211,138.012345 128.749727,136.851154 C127.763412,135.689169 127.748443,134.143294 128.715631,133.396927 C129.681986,132.650561 131.264581,132.987655 132.250896,134.148846 Z" id="Stroke-335" stroke-width="0.25"></path>
                    <line x1="104" y1="113" x2="112" y2="114" id="Stroke-337" stroke-width="0.25"></line>
                    <line x1="108" y1="73" x2="109" y2="76" id="Stroke-339" stroke-width="0.25"></line>
                    <path d="M132,46 C132,46 136.679492,42.6407002 146,38" id="Stroke-341" stroke-width="0.25"></path>
                    <line x1="109" y1="83" x2="108" y2="79" id="Stroke-343" stroke-width="0.25"></line>
                </g>
            </g>
        </g>
    </g>
</svg>