<?xml version="1.0" encoding="utf-8"?>
<!-- Generator: Adobe Illustrator 24.2.3, SVG Export Plug-In . SVG Version: 6.00 Build 0)  -->
<svg version="1.1" id="Layer_1" xmlns="http://www.w3.org/2000/svg" xmlns:xlink="http://www.w3.org/1999/xlink" x="0px" y="0px"
	 viewBox="0 0 48 48" style="enable-background:new 0 0 48 48;" xml:space="preserve">
<style type="text/css">
	.st0{fill-rule:evenodd;clip-rule:evenodd;fill:#FFFFFF;}
</style>
<path id="Drone" class="st0" d="M24,32c-2.2,0-4,1.8-4,4s1.8,4,4,4s4-1.8,4-4S26.2,32,24,32L24,32z M42,18c0,2.2-1.8,4-4,4h-4l-4,4
	h-4v2h7c1.8,0.1,3.1,1.6,3,3.4v0v9.3c0.1,1.8-1.3,3.3-3,3.4h0H15c-1.7-0.1-3.1-1.6-3-3.4v-9.3c-0.1-1.8,1.3-3.3,3-3.4h0h7v-2h-4
	l-4-4h-4c-2.2,0-4-1.8-4-4s1.8-4,4-4v-2h4v2h20v-2h4v2C40.2,14,42,15.8,42,18L42,18z M10,10h12V6h-8V4h-4v2H2v4H10z M34,10h-8V6h8V4
	h4v2h8v4H34z"/>
</svg>
