<?xml version="1.0" encoding="UTF-8"?>
<svg width="44px" height="40px" viewBox="0 0 44 40" version="1.1" xmlns="http://www.w3.org/2000/svg" xmlns:xlink="http://www.w3.org/1999/xlink">
    <!-- Generator: Sketch 63.1 (92452) - https://sketch.com -->
    <title>Drone</title>
    <desc>Created with Sketch.</desc>
    <g id="Screens" stroke="none" stroke-width="1" fill="none" fill-rule="evenodd">
        <g id="Home" transform="translate(-554.000000, -5085.000000)" fill="#474747">
            <g id="We-developed-tools-to-fight-this" transform="translate(0.000000, 4500.000000)">
                <path d="M576,613 C573.792,613 572,614.792 572,617 C572,619.208 573.792,621 576,621 C578.208,621 580,619.208 580,617 C580,614.792 578.208,613 576,613 L576,613 Z M594,599 C594,601.208 592.208,603 590,603 L586,603 L582,607 L578,607 L578,609 L584.96,609 C586.724,609.086 588.086,610.586 588,612.352 L588,612.36 L588,621.64 C588.09,623.404 586.732,624.908 584.968,625 L584.96,625 L566.96,625 C565.224,624.872 563.908,623.378 564,621.64 L564,612.36 C563.91,610.596 565.266,609.092 567.032,609 L567.04,609 L574,609 L574,607 L570,607 L566,603 L562,603 C559.792,603 558,601.208 558,599 C558,596.792 559.792,595 562,595 L562,593 L566,593 L566,595 L586,595 L586,593 L590,593 L590,595 C592.208,595 594,596.792 594,599 L594,599 Z M562,591 L574,591 L574,587 L566,587 L566,585 L562,585 L562,587 L554,587 L554,591 L562,591 Z M586,591 L578,591 L578,587 L586,587 L586,585 L590,585 L590,587 L598,587 L598,591 L586,591 Z" id="Drone"></path>
            </g>
        </g>
    </g>
</svg>