<?xml version="1.0" encoding="UTF-8"?>
<svg width="185px" height="44px" viewBox="0 0 185 44" version="1.1" xmlns="http://www.w3.org/2000/svg" xmlns:xlink="http://www.w3.org/1999/xlink">
    <title>Combined Shape</title>
    <g id="Screens" stroke="none" stroke-width="1" fill="none" fill-rule="evenodd">
        <g id="Home" transform="translate(-628.000000, -8000.000000)" fill="#FFFFFF" fill-rule="nonzero">
            <g id="Contact-us" transform="translate(0.000000, 7200.000000)">
                <g id="instedd" transform="translate(628.000000, 800.000000)">
                    <path d="M19,10.4 C21.7,10.4 23.2,12.5 23.2,15 L23.2,18.1 C23.2,20.7 21.7,22.7 19,22.7 L15.9,22.7 C14.8244444,22.7 11.6455802,22.8912099 11.7852697,26.4519627 L11.8,26.7 L11.8,27.2 C11.5066667,30.9155556 14.6551111,31.1893333 15.8234711,31.1996664 L15.9,31.2 L19,31.2 C21.7,31.2 23.2,33.3 23.2,35.8 L23.2,39 C23.2,41.6 21.7,43.6 19,43.6 L15.9,43.6 C13.2,43.7 11,41.6 11,39 L11,37.2 C11.2942308,32.7865385 6.77892012,33.1826183 6.60514551,33.1994844 L6.6,33.2 L4.5,33.2 C2.1,33.2 0.1,31.3 0.1,29 L0.1,25 C0.1,22.7 2.1,20.8 4.5,20.8 L6.6,20.8 C6.6,20.8 11.2171598,21.2809541 11.0173788,17.0541072 L11,16.8 L11,15 C11,12.4 13.2,10.4 15.9,10.4 L19,10.4 Z M98.8,10.5 C103.1,10.5 106.9,12.8 106.9,17.3 L104.8,17.3 C104.7,13.9 101.9,12.3 98.8,12.3 C95.9,12.3 93.3,13.4 93.3,16.7 C93.3,18.8 94.8,19.6 96.6,20.1 L102,21.4 C105.1,22.2 107.7,23.6 107.7,27.2 C107.7,28.7 107.1,33.5 99.3,33.5 C94.1,33.5 90.3,31.2 90.5,25.8 L92.5,25.8 L92.5,25.8 C92.4,30.3 95.7,31.7 99.7,31.7 C102,31.7 105.5,30.4 105.5,27.2 C105.5,24.7 103,23.7 101,23.2 L96.1,22 C93.5,21.4 91.2,20.1 91.2,16.7 C91.2,14.5 92.6,10.5 98.8,10.5 Z M35.4,0.3 C38.1,0.3 40.3,2.4 40.3,4.9 L40.3,6.7 C40.0057692,11.1134615 44.5210799,10.7173817 44.6948545,10.7005156 L46.8,10.7 C49.2,10.7 51.2,12.6 51.2,14.9 L51.2,18.9 C51.2,21.2 49.2,23.1 46.8,23.1 L44.7,23.1 C44.7,23.1 40.0828402,22.6190459 40.2826212,26.8458928 L40.3,27.1 L40.3,28.9 C40.3,31.5 38.1,33.5 35.4,33.5 L32.3,33.5 C29.6,33.4 28.1,31.3 28.1,28.8 L28.1,25.7 C28.1,23.1 29.6,21.1 32.3,21.1 L35.4,21.1 C36.4755556,21.1 39.6544198,20.9087901 39.5147303,17.3480373 L39.5,17.1 L39.5,16.6 C39.7933333,12.8844444 36.6448889,12.6106667 35.4765289,12.6003336 L32.3,12.6 C29.6,12.6 28.1,10.5 28.1,8 L28.1,4.9 C28.1,2.3 29.6,0.3 32.3,0.3 L35.4,0.3 Z M69,11.1 L69,33.1 L64.2,33.1 L64.2,11.1 L69,11.1 Z M153.8,11.1 C160.4,11.3 163.9,14.9 163.9,22.1 C163.9,29.3 160.4,32.9 153.8,33.1 L146.2,33.1 L146.2,11.1 L153.8,11.1 Z M174.9,11.1 C181.5,11.3 185,14.9 185,22.1 C185,29.3 181.5,32.9 174.9,33.1 L167.3,33.1 L167.3,11.1 L174.9,11.1 Z M81.9,16.7 C86.5,16.7 87.7,19.3 87.7,23.2 L87.7,33 L83.3,33 L83.3,24 C83.3,21.4 82.5,20.1 80.5,20.1 C78.1,20.1 77.1,21.4 77.1,24.6 L77.1,33 L72.7,33 L72.7,17.1 L77,17.1 L77,19.3 C78.1,17.5 80,16.7 81.9,16.7 Z M126,11.1 L126,12.9 L118.3,12.9 L118.3,33 L116.2,33 L116.2,12.9 L108.5,12.9 L108.6,11.1 L126,11.1 Z M143.2,11.1 L143.2,12.9 L130.1,12.9 L130.1,20.8 L142.3,20.8 L142.3,22.6 L130.1,22.6 L130.1,31.3 L143.3,31.3 L143.3,33 L128,33 L128,11.1 L143.2,11.1 Z M152.8,12.8 L148.3,12.8 L148.3,31.2 L152.8,31.2 C159.1,31.2 161.8,28.6 161.8,22 C161.8,15.5 159.1,12.8 152.8,12.8 Z M173.9,12.8 L169.4,12.8 L169.4,31.2 L173.9,31.2 C180.2,31.2 182.9,28.6 182.9,22 C182.9,15.5 180.2,12.8 173.9,12.8 Z" id="Combined-Shape"></path>
                </g>
            </g>
        </g>
    </g>
</svg>