<?xml version="1.0" encoding="utf-8"?>
<!-- Generator: Adobe Illustrator 21.1.0, SVG Export Plug-In . SVG Version: 6.00 Build 0)  -->
<svg version="1.1" id="Layer_1" xmlns="http://www.w3.org/2000/svg" xmlns:xlink="http://www.w3.org/1999/xlink" x="0px" y="0px"
	 viewBox="0 0 308.5 111.4" style="enable-background:new 0 0 308.5 111.4;" xml:space="preserve">
<style type="text/css">
	.st0{fill:#FFFFFF;}
</style>
<path class="st0" d="M70,66.8h-3.2v-8h0c0-2.6-2.1-4.8-4.8-4.8c-2.6,0-4.8,2.1-4.8,4.7v1.6h-3.2v-1.6c0,0,0,0,0,0h0c0,0,0,0,0,0
	c0-2.6-2.1-4.8-4.8-4.8c-2.6,0-4.8,2.1-4.8,4.8v0v1.6h-3.2V44.6h3.2v8c1.3-1,3-1.6,4.8-1.6c2.6,0,4.9,1.2,6.4,3.2
	c1.5-1.9,3.8-3.2,6.4-3.2c4.4,0,8,3.6,8,8h0V66.8z M70,47.7h-8v0c-2.2,0-4.1-0.9-5.6-2.3l2.3-2.3c0.9,0.8,2,1.3,3.3,1.3h8V47.7z
	 M55.7,31.8c13.2,0,23.9,10.7,23.9,23.9c0,13.2-10.7,23.9-23.9,23.9c-13.2,0-23.9-10.7-23.9-23.9C31.8,42.5,42.5,31.8,55.7,31.8
	 M55.7,28.6c-14.9,0-27.1,12.1-27.1,27.1c0,14.9,12.1,27.1,27.1,27.1c14.9,0,27.1-12.1,27.1-27.1C82.8,40.8,70.6,28.6,55.7,28.6
	L55.7,28.6z M109.7,49.8l0.1,2c1.2-1.5,3-2.3,5.3-2.3c2.3,0,4.2,0.9,5.1,2.9c1.2-1.7,3.1-2.9,5.7-2.9c3.8,0,6,2,6,6.5v11.8h-3.1V56
	c0-3-1.5-3.9-3.8-3.9c-2.5,0-3.9,1.7-4.2,3.8v11.9h-3.1V56c0-2.8-1.5-3.9-3.8-3.9c-2.2,0-3.5,1-4.1,2.6v13.1h-3.1v-18H109.7z
	 M147.7,67.8c-0.2-0.4-0.3-1.2-0.4-1.9c-1.2,1.2-2.9,2.2-5.1,2.2c-3.7,0-6.1-2.3-6.1-5.3c0-3.9,3.1-5.9,8.1-5.9h3.1v-1.4
	c0-2.1-1.3-3.5-3.8-3.5c-2.3,0-3.9,1.3-3.9,2.8h-3.1c0-2.6,2.8-5.3,7.1-5.3c3.9,0,6.7,2,6.7,6v8.4c0,1.2,0.2,2.7,0.6,3.7v0.3H147.7z
	 M147.2,62.8v-3.7h-2.6c-3.5,0-5.5,1.1-5.5,3.3c0,1.7,1.2,3.1,3.4,3.1C144.8,65.4,146.6,64.1,147.2,62.8z M158,49.8l0.1,2.3
	c1.3-1.6,3.1-2.6,5.4-2.6c3.5,0,5.7,1.8,5.7,6.5v11.8h-3.1V56c0-2.8-1.3-3.9-3.6-3.9c-2,0-3.5,1.2-4.4,2.9v12.8h-3.1v-18H158z
	 M185,67.8c-0.2-0.4-0.3-1.2-0.4-1.9c-1.2,1.2-2.9,2.2-5.1,2.2c-3.7,0-6.1-2.3-6.1-5.3c0-3.9,3.1-5.9,8.1-5.9h3.1v-1.4
	c0-2.1-1.3-3.5-3.8-3.5c-2.3,0-3.9,1.3-3.9,2.8h-3.1c0-2.6,2.8-5.3,7.1-5.3c3.9,0,6.7,2,6.7,6v8.4c0,1.2,0.2,2.7,0.6,3.7v0.3H185z
	 M184.5,62.8v-3.7h-2.6c-3.5,0-5.5,1.1-5.5,3.3c0,1.7,1.2,3.1,3.4,3.1C182.1,65.4,183.8,64.1,184.5,62.8z M198.7,59.9
	c-4-0.8-6.5-2.2-6.5-5.2c0-2.8,2.6-5.3,6.6-5.3c4.3,0,6.9,2.5,6.9,5.6h-3.1c0-1.5-1.3-3.1-3.8-3.1c-2.6,0-3.6,1.3-3.6,2.6
	c0,1.4,0.7,2,4.2,2.8c4.4,1,6.4,2.5,6.4,5.4c0,3.1-2.7,5.3-6.9,5.3c-4.8,0-7.4-2.9-7.4-5.9h3.1c0.1,2.5,2.4,3.4,4.3,3.4
	c2.5,0,3.9-1.1,3.9-2.6C202.8,61.7,202.2,60.7,198.7,59.9z M211.9,64.3c1.3,0,1.9,0.8,1.9,1.9c0,1-0.7,1.8-1.9,1.8s-1.9-0.8-1.9-1.8
	C210,65.1,210.6,64.3,211.9,64.3z M223,45.5v4.3h3.4v2.4H223v11.1c0,1.9,1,2.2,2,2.2c0.5,0,1.1-0.1,1.5-0.2v2.5
	c-0.5,0.1-1.2,0.3-2.4,0.3c-2.3,0-4.2-1.2-4.2-4.8V52.2h-3.3v-2.4h3.3v-4.3H223z M229.2,59.4v-0.7c0-5.9,3.8-9.2,7.9-9.2
	c5.1,0,7.4,3.8,7.4,8.8v1.4h-12.2c0.1,3.3,2.1,5.9,5.3,5.9c2.2,0,3.6-1,4.7-2.4l1.9,1.5c-1.1,1.8-3.2,3.5-6.8,3.5
	C232.4,68.1,229.2,64.5,229.2,59.4z M232.4,57.2h9v-0.2c-0.1-2.4-1.2-4.9-4.3-4.9C234.6,52,232.8,53.8,232.4,57.2z M259.4,62.1h2.9
	c-0.2,3.2-3.3,6-7.1,6c-5.4,0-8-4.1-8-9v-0.7c0-4.8,2.6-9,8-9c4.2,0,7,2.8,7.2,6.5h-2.9c-0.2-2.2-1.8-4-4.3-4
	c-3.8,0-4.9,3.3-4.9,6.4v0.7c0,3.2,1.1,6.5,4.9,6.5C257.4,65.6,259.2,64.1,259.4,62.1z M268.8,52c1.3-1.6,3.1-2.5,5.3-2.5
	c3.5,0,5.7,1.8,5.7,6.5v11.8h-3.1V56c0-2.8-1.3-3.9-3.6-3.9c-2,0-3.5,1.2-4.4,2.9v12.8h-3.1V42.3h3.1V52z"/>
</svg>
