<?xml version="1.0" encoding="UTF-8"?>
<svg width="1310px" height="1310px" viewBox="0 0 1310 1310" version="1.1" xmlns="http://www.w3.org/2000/svg" xmlns:xlink="http://www.w3.org/1999/xlink">
    <title>Map</title>
    <g id="Screens" stroke="none" stroke-width="1" fill="none" fill-rule="evenodd">
        <g id="Map">
            <path d="M654.998572,1310 C293.252997,1310 0,1016.747 0,655 C0,293.254425 293.252997,0 654.998572,0 C1016.747,0 1310,293.254425 1310,655 C1310,1016.747 1016.747,1310 654.998572,1310 Z" id="Fill-1" fill-opacity="0" fill="#FFFFFF"></path>
            <path d="M762.594524,1291.36923 L755.87313,1293.69104 L749.337332,1294.44499 L745.91239,1295.65873 L739.555048,1296 L740.841364,1295.20179 L749.577177,1293.22125 L753.280511,1293.15985 L758.103126,1291.44776 L762.594524,1291.36923 Z M812.884627,1288.0473 L808.27616,1289.27817 L806.471178,1289.71626 L812.026179,1288.06557 L812.884627,1288.0473 Z M878.668341,1263.87061 L875.858719,1266.15102 L879.77049,1266.18957 L870.430779,1269.5195 L874.205496,1269.24962 L880.0446,1267.15057 L877.888843,1267.42758 L883.136898,1265.46561 L886.019331,1264.94442 L888.490599,1264.14049 L872.026896,1270.23775 L868.06944,1271.55144 L869.774772,1270.90759 L812.026179,1288.06557 L811.575468,1288.07585 L811.789616,1287.77456 L818.80939,1285.88256 L823.236544,1284.31755 L823.069509,1283.77493 L813.764061,1285.73548 L806.087567,1287.60035 L806.034744,1286.63365 L812.721874,1284.08194 L813.365746,1282.13853 L818.148386,1280.05518 L819.144888,1278.89713 L813.328627,1278.65867 L807.068365,1279.31551 L810.027892,1278.53444 L815.617442,1276.82906 L817.917392,1275.54393 L822.164662,1273.27495 L819.36075,1271.87415 L821.911967,1270.94743 L829.942519,1268.90692 L839.937523,1267.02205 L850.103845,1264.4832 L854.639501,1264.19618 L855.454692,1265.26142 L861.506516,1264.26615 L869.825454,1264.25044 L871.100349,1265.39564 L867.171446,1268.10014 L878.668341,1263.87061 Z M800.987988,1275.06172 L809.084212,1278.09749 L805.139605,1278.22886 L799.354752,1278.1746 L789.289793,1279.57825 L779.740217,1281.45598 L780.810958,1279.90097 L786.622936,1278.25456 L790.870206,1277.98611 L794.659199,1276.94801 L800.987988,1275.06172 Z M845.740936,1264.70167 L839.83616,1266.4723 L828.567689,1268.9469 L819.048093,1271.33868 L817.831732,1272.97366 L818.439913,1274.43871 L814.104129,1276.80764 L809.084498,1278.09706 L800.986846,1275.06129 L794.659485,1276.94758 L790.869064,1277.98711 L791.457257,1276.75909 L795.521787,1274.70859 L798.42849,1273.92608 L802.315992,1272.91797 L807.709667,1272.02837 L814.502444,1270.20633 L824.230477,1268.36716 L832.490881,1266.82928 L845.740936,1264.70167 Z M656.056006,873.132887 L658.915597,875.96304 L659.652266,880.817997 L661.024241,885.300264 L662.864487,888.865801 L666.492155,890.83063 L671.668828,890.505062 L677.467957,890.66499 L681.539626,890.407963 L687.315913,890.912022 L691.690244,890.986274 L697.348036,892.202869 L702.134959,893.582248 L704.626214,897.311996 L702.88876,901.168831 L704.990266,904.655832 L708.966282,907.72445 L712.889474,911.21859 L717.653555,914.005906 L722.499012,916.713258 L726.10812,919.22784 L730.39822,920.450146 L734.095843,917.765641 L736.57425,921.478255 L738.261737,925.393634 L740.604516,928.562207 L744.690461,930.956843 L748.353821,933.48856 L748.430914,937.796619 L751.200562,941.486386 L752.231328,945.778739 L755.186572,948.660298 L759.079783,949.992555 L762.321985,951.930254 L766.246605,953.418155 L769.520215,955.915602 L772.174224,958.814296 L773.978778,962.401252 L775.780477,965.833991 L775.873274,969.469497 L773.092205,972.633786 L769.344614,974.858498 L761.990769,980.844374 L758.238895,983.687379 L753.847432,983.386086 L750.047018,985.830699 L745.437124,986.137704 L742.030742,989.180619 L738.233183,991.665214 L734.69974,993.685733 L731.366169,996.948549 L728.792109,999.932919 L726.110976,1003.8126 L724.135103,1007.19679 L723.318485,1011.03221 L721.666689,1014.52063 L720.688747,1017.89768 L723.532633,1020.65359 L721.698098,1024.62608 L717.395149,1024.44188 L713.383442,1025.03447 L709.587311,1023.94211 L705.138742,1028.32727 L702.479023,1032.24694 L699.853568,1035.26272 L697.189566,1038.0786 L697.673541,1041.61557 L696.305848,1045.38959 L695.634851,1048.87659 L695.412137,1052.36645 L695.444973,1055.62641 L695.386439,1058.87923 L696.053154,1062.51902 L693.446258,1066.46295 L694.841076,1069.47588 L694.435622,1070.21555 L692.997975,1072.69729 L697.309489,1072.32174 L696.818376,1075.70022 L696.198774,1078.2248 L696.084562,1078.35617 L701.599588,1075.07622 L700.368951,1078.12056 L700.744424,1077.9692 L704.200774,1076.6912 L704.309275,1076.78259 L704.240748,1076.9568 L701.655267,1080.36241 L706.250884,1078.73457 L706.873341,1078.57893 L710.700881,1079.55563 L709.034809,1081.52617 L708.176789,1082.49002 L705.905392,1085.19595 L704.846073,1088.30312 L702.72458,1091.109 L701.906534,1094.40608 L705.836865,1095.22857 L704.79896,1098.6456 L701.879409,1100.95599 L705.655553,1101.96411 L709.190423,1103.30065 L714.502723,1102.62381 L714.201488,1099.55234 L716.087419,1096.41518 L720.216193,1094.57601 L721.521069,1091.62733 L726.462178,1090.24367 L731.112047,1089.15131 L735.223689,1088.29312 L739.626574,1086.61673 L741.775192,1083.79086 L745.054513,1081.60185 L747.414425,1078.53752 L748.136818,1081.66611 L751.243392,1083.80086 L748.18393,1086.77381 L752.169939,1087.96327 L757.022534,1088.90856 L760.957148,1088.99995 L765.419994,1087.28786 L767.755635,1084.70331 L770.275444,1081.59328 L769.902826,1078.35046 L770.271161,1075.1876 L769.84001,1071.99332 L773.364887,1069.39164 L775.566329,1066.03172 L778.464466,1063.193 L789.752924,1057.23283 L789.361747,1058.51225 L786.987559,1061.51518 L789.361747,1063.91125 L792.134251,1066.02744 L788.169656,1069.26455 L790.403934,1071.54067 L793.703242,1072.98573 L797.288081,1074.26373 L801.692392,1075.06479 L803.429847,1077.5908 L807.574326,1076.23998 L811.353325,1074.288 L815.276518,1073.65828 L817.819169,1075.71165 L814.485598,1077.96206 L817.38659,1080.46236 L820.443197,1082.13018 L821.034245,1085.09599 L822.456188,1087.63056 L825.32149,1089.9538 L827.697105,1091.81011 L830.008477,1093.96343 L829.407435,1095.8183 L828.402366,1097.48898 L829.725801,1100.56188 L827.541491,1103.76187 L827.34733,1106.71625 L828.406649,1109.37363 L826.881915,1112.44938 L825.017399,1115.72505 L824.590531,1118.71228 L823.474106,1121.7966 L822.226336,1124.92948 L821.508226,1127.80961 L823.718234,1130.04003 L824.243611,1132.60316 L820.821525,1135.19771 L821.355467,1137.77798 L823.683971,1140.274 L819.740791,1141.41634 L815.787618,1141.86899 L811.677403,1142.85855 L813.376311,1145.24747 L808.049735,1147.12948 L805.10163,1149.51269 L800.942874,1151.32616 L799.478101,1153.99639 L799.283941,1156.62806 L796.627077,1159.29114 L793.21784,1161.34165 L789.337477,1163.34646 L792.401222,1165.29701 L796.495733,1164.95431 L800.456044,1164.90719 L803.485526,1162.68676 L807.834159,1162.3312 L819.129755,1163.23794 L816.642782,1164.57591 L813.544774,1167.13761 L811.685969,1169.86495 L808.035458,1171.77409 L803.374169,1173.06494 L799.353896,1172.95213 L796.2359,1175.22111 L794.724014,1177.90847 L793.360605,1180.86714 L791.541774,1183.42313 L787.337334,1184.38413 L784.948869,1186.87729 L788.680756,1190.81837 L783.357035,1190.63417 L779.255386,1191.87647 L776.73986,1194.15116 L771.972924,1193.99123 L768.47089,1195.75329 L764.534848,1197.00701 L760.014897,1197.7067 L760.383231,1200.34694 L761.496801,1202.3132 L756.415782,1202.0476 L753.214982,1204.15665 L749.241822,1204.47508 L745.511362,1203.79396 L742.344826,1205.7031 L740.623076,1207.90354 L738.982702,1210.1311 L736.090275,1212.07594 L732.481167,1214.07647 L729.278939,1215.97133 L727.051799,1217.92616 L726.520712,1219.97096 L727.572893,1222.2585 L729.601589,1224.13194 L732.23561,1225.59557 L734.978133,1227.09632 L737.759202,1228.54995 L740.10341,1229.81081 L741.963643,1231.38724 L743.235682,1233.21071 L742.982987,1235.27264 L743.148595,1237.45308 L744.175078,1239.25513 L746.612083,1240.79729 L748.715017,1242.13669 L748.420921,1244.49134 L747.288791,1246.26483 L745.882552,1248.40958 L744.039451,1250.37583 L741.406858,1252.41063 L741.245533,1254.42116 L739.520927,1256.06898 L737.510791,1257.67112 L733.120755,1258.85916 L731.126323,1260.60123 L728.206771,1261.97918 L724.521997,1263.17578 L721.653841,1264.74365 L719.543768,1266.34578 L716.038878,1267.38674 L712.426914,1266.91981 L713.690388,1265.42192 L717.947651,1263.54847 L719.495228,1262.35758 L723.512646,1262.29047 L727.08178,1261.25808 L729.832869,1259.69021 L732.508292,1258.09236 L733.794608,1256.52592 L733.234968,1254.87666 L731.794465,1253.54726 L728.720727,1252.70621 L730.980702,1251.08837 L734.919599,1249.7761 L736.131677,1247.91409 L737.485093,1246.06206 L738.474457,1243.65886 L737.880553,1241.97533 L734.933876,1240.61166 L731.698812,1239.82202 L727.829871,1239.60069 L723.726794,1238.93956 L720.93002,1237.48307 L718.962713,1235.99231 L716.648487,1234.3659 L713.931661,1233.16501 L711.751634,1231.5386 L708.512288,1227.09775 L706.470743,1225.44706 L704.950292,1223.46938 L702.91874,1221.66305 L701.706662,1218.74865 L702.283435,1216.25834 L702.931589,1214.02649 L706.416492,1212.51432 L706.507862,1210.23106 L706.951862,1208.05061 L709.682964,1205.02198 L712.563969,1203.20851 L714.855353,1201.03948 L717.360886,1198.84619 L717.35232,1195.98176 L721.019962,1194.46102 L725.314345,1193.10163 L728.569395,1191.28816 L732.296999,1189.68888 L729.337473,1187.97965 L724.985984,1188.52655 L721.052798,1188.04819 L717.901967,1186.70451 L718.532989,1184.11996 L722.513288,1183.12612 L723.859566,1180.63724 L721.493943,1178.41253 L719.156874,1176.28778 L715.075212,1175.46957 L712.57539,1173.64468 L708.262448,1172.41809 L703.856709,1172.92358 L699.526635,1172.47949 L695.72051,1171.37142 L691.281935,1170.25621 L686.697739,1170.37472 L681.890828,1169.63363 L678.317411,1168.24711 L674.549833,1166.56501 L671.860133,1163.47497 L670.254023,1161.05606 L669.427411,1163.73057 L667.74849,1166.09522 L665.681248,1168.56554 L662.867342,1170.65888 L660.256164,1172.77222 L656.191633,1173.04638 L652.185637,1172.10823 L649.05622,1170.34474 L647.755627,1173.3234 L645.164436,1175.23825 L640.845783,1175.03548 L637.07535,1176.21209 L633.377727,1177.18737 L629.343177,1177.53436 L624.931727,1177.95131 L621.308342,1179.04082 L621.536766,1181.53541 L621.298348,1183.90577 L620.130528,1186.30326 L624.14509,1186.82731 L628.742135,1186.52174 L632.802382,1187.07863 L632.715295,1189.5004 L630.999255,1194.19971 L629.524489,1195.36918 L625.661258,1196.413 L621.212689,1197.17694 L617.493651,1198.43637 L613.65469,1199.61298 L610.179781,1201.47929 L606.149514,1201.7049 L602.279145,1201.67491 L600.283285,1201.61922 L596.157366,1200.84243 L591.850134,1200.50401 L587.908383,1200.55399 L583.749627,1200.70392 L579.717933,1200.95238 L574.614071,1201.21512 L570.539547,1201.91623 L566.483583,1202.33176 L563.524057,1203.87678 L565.15872,1206.08578 L562.023592,1207.64365 L558.383075,1208.25766 L554.332822,1207.83499 L549.847134,1207.51514 L545.003105,1207.43803 L540.511706,1207.94209 L536.165928,1209.06016 L532.299842,1209.05016 L529.104752,1207.03536 L529.770039,1205.03626 L526.73342,1202.98861 L524.079411,1204.29802 L520.061994,1204.8035 L517.539329,1202.69303 L519.4738,1200.97808 L516.559959,1198.79335 L511.78874,1197.10126 L507.512917,1195.21496 L504.871758,1192.94027 L506.954705,1190.92118 L501.665247,1189.85595 L497.764897,1188.39375 L493.794592,1186.48604 L489.937072,1184.57547 L485.494214,1183.0533 L481.525336,1181.02279 L477.723494,1179.57201 L473.314899,1178.87947 L473.66753,1176.73329 L470.096968,1174.60853 L472.819504,1172.15535 L474.7811,1170.36187 L470.689444,1168.06576 L466.10382,1167.56313 L461.513914,1165.54119 L459.596575,1162.33692 L462.247728,1160.98324 L457.273782,1159.3554 L454.14151,1156.79513 L451.703077,1153.84503 L450.091256,1151.19194 L449.283204,1148.30181 L448.283846,1145.51592 L450.850768,1144.2265 L452.858049,1142.51584 L449.625841,1139.81849 L447.70993,1136.77843 L446.275138,1133.80691 L444.607638,1130.89822 L442.274852,1128.29368 L439.882104,1125.35786 L436.135941,1122.82757 L433.44053,1120.11736 L431.423256,1117.12585 L427.88553,1114.68409 L421.823712,1112.43082 L417.927645,1110.27037 L418.798514,1107.45021 L422.203468,1106.96757 L424.046569,1104.85852 L422.735983,1101.73421 L426.066699,1100.32627 L428.527974,1098.79696 L425.551316,1095.34423 L420.998528,1093.39654 L418.709999,1090.32649 L414.983823,1086.52963 L413.357725,1083.1483 L411.249081,1079.1401 L409.041928,1076.11575 L406.520691,1072.82152 L404.417757,1069.69293 L405.692652,1067.13836 L402.269138,1063.12017 L399.560879,1060.06584 L400.2847,1057.2314 L398.120377,1053.65872 L394.591217,1051.69818 L392.178482,1047.75424 L390.692294,1044.35434 L389.781451,1040.35757 L389.617271,1036.88342 L390.8836,1034.28173 L392.806649,1031.71575 L396.452877,1030.37349 L400.957125,1032.24122 L405.248652,1031.02463 L408.739265,1030.50344 L411.137724,1027.41054 L414.725417,1026.87935 L418.554385,1025.86267 L420.323248,1023.29383 L419.472366,1019.95676 L416.547104,1015.11894 L420.18191,1013.6396 L422.887314,1011.52056 L425.415689,1009.44721 L427.944063,1007.10683 L429.63155,1004.37949 L441.127018,1008.49192 L443.411264,1010.06693 L447.595717,1013.077 L448.540824,1017.11804 L450.890742,1021.2476 L455.052353,1023.1696 L456.594219,1020.31517 L460.174774,1022.79833 L463.131445,1026.28105 L466.592078,1029.72664 L470.822216,1029.64953 L473.36344,1027.53477 L473.427684,1023.92783 L470.592364,1020.42083 L467.451525,1017.35507 L465.384283,1014.16651 L463.728205,1010.7866 L460.910016,1007.97787 L457.369435,1003.5313 L457.592149,1001.35228 L459.583726,998.316504 L460.494569,995.14222 L461.332602,991.55098 L458.81422,987.614182 L456.244444,984.315667 L454.499851,979.873382 L454.848198,975.589598 L455.296482,972.115448 L453.753188,968.154375 L453.821715,965.392762 L454.472725,962.396968 L458.111815,960.726292 L459.80644,957.716219 L461.642402,954.403425 L465.481363,952.320078 L465.505633,948.349009 L462.040718,941.672017 L465.147292,942.998562 L470.146936,945.837284 L474.408482,945.63309 L477.880536,944.149472 L480.253297,941.140827 L484.04229,939.584386 L487.265932,937.773773 L488.8492,935.671862 L492.014308,934.4467 L495.983186,934.800826 L498.186055,931.795037 L501.979331,929.727397 L504.560529,926.857261 L509.06906,926.067616 L509.481652,921.828097 L509.438822,917.82847 L510.451029,913.97592 L511.249087,904.595859 L514.605501,904.800052 L519.116887,906.197994 L523.661109,908.439842 L531.734491,912.372356 L535.660538,911.088649 L539.390998,909.734973 L543.264222,907.191832 L547.064637,904.347399 L549.324612,900.47343 L551.002106,896.613739 L555.640553,894.867383 L557.901956,891.694526 L562.109252,892.90541 L565.397138,895.542793 L569.563032,897.974555 L574.078701,896.518068 L577.776324,898.361524 L583.77818,899.940812 L589.281785,899.99793 L593.527628,898.288699 L596.207334,894.449 L598.350242,890.719251 L602.169216,889.209931 L606.45646,890.122377 L611.291923,890.642143 L615.222254,888.52167 L619.265369,888.116138 L623.445539,888.862945 L627.738494,889.459819 L631.62314,887.347913 L636.238745,885.430205 L640.977127,884.869029 L646.072424,884.733376 L650.336825,883.561047 L654.469883,882.807101 L655.844714,877.420955 L656.056006,873.132887 Z M748.375236,1213.32966 L752.237039,1213.70378 L754.479883,1215.3716 L753.146454,1218.42594 L751.546055,1219.79104 L747.601447,1221.03048 L749.057654,1223.54506 L750.548125,1225.18432 L754.5427,1228.5271 L754.641208,1231.15735 L751.881553,1232.95939 L748.322412,1232.00268 L745.809742,1230.77038 L742.30628,1229.32817 L739.309634,1227.78173 L736.404359,1226.06821 L734.141528,1224.11909 L733.126466,1222.16854 L732.314131,1220.12803 L735.483522,1218.27886 L738.090418,1216.22407 L742.274871,1214.85612 L742.65891,1217.23076 L745.674115,1215.25737 L748.375236,1213.32966 Z M662.114969,1177.46867 L666.413634,1177.61289 L669.271797,1179.59343 L669.701521,1182.3936 L665.873981,1184.50836 L664.537697,1186.92727 L663.679677,1189.73458 L663.011535,1192.26915 L661.999329,1194.56669 L660.78154,1197.28689 L659.506645,1197.33401 L656.068855,1198.73481 L652.449753,1197.43397 L649.690098,1194.62809 L648.944863,1190.67844 L648.89204,1187.82829 L649.030522,1184.4898 L652.124248,1182.44786 L655.172289,1180.68437 L658.53013,1179.06938 L662.114969,1177.46867 Z M686.789108,1174.44146 L690.209767,1175.9722 L690.412494,1176.29777 L692.53827,1177.87706 L688.293856,1178.58817 L684.059435,1178.92516 L683.886688,1181.76816 L683.920952,1184.28846 L680.778686,1181.99663 L679.922094,1178.641 L679.156872,1175.59523 L683.194276,1175.77229 L686.789108,1174.44146 Z M823.26424,1167.39178 L823.631148,1169.00677 L819.776482,1171.4728 L816.180223,1174.29296 L812.681043,1176.16069 L811.289081,1178.66099 L805.185861,1178.36113 L807.482956,1177.01745 L809.692964,1174.62852 L812.582535,1172.21961 L814.769701,1169.438 L818.511581,1167.68165 L823.26424,1167.39178 Z M832.628221,1121.27255 L835.988918,1121.59669 L833.227836,1124.36259 L830.498162,1127.2927 L831.256246,1129.91866 L827.918392,1128.73348 L826.152384,1126.71724 L827.99834,1123.65005 L832.628221,1121.27255 Z M837.425138,1110.55738 L839.3282,1111.99245 L836.35297,1114.54273 L831.153455,1118.26676 L831.881558,1116.95878 L833.737508,1113.96299 L837.425138,1110.55738 Z M95.1782484,994.684997 L66.6096121,942.436958 L66.5553612,942.349854 L66.6451606,942.648434 L65.3024523,940.042608 L65.056182,939.537264 L61.7568742,932.501861 L61.0202049,930.812622 L59.8966414,928.293757 L55.9249087,919.597673 L50.6026155,907.321774 L49.3105889,904.118931 L47.9257647,900.860398 L45.059036,893.66364 L42.552076,886.913823 L40.7860684,882.640033 L39.8967828,879.94796 L38.4318673,876.475667 L31.0553232,853.181444 L31.5341583,855.371315 L28.4832622,846.211155 L26.9242643,841.097744 L25.3738324,836.292765 L23.2409177,828.883245 L22.4328657,825.948852 L20.1115007,817.18994 L20.4955395,818.587882 L23.0067825,827.338227 L24.4938266,832.460777 L25.0491839,834.212845 L26.0119936,836.662598 L27.1926632,840.16959 L27.4796216,840.385207 L28.50896,843.211078 L28.8087673,843.625177 L27.8051267,840.422334 L28.2077251,840.430901 L27.8693711,839.532734 L26.7243928,836.953896 L27.0299107,838.388964 L26.656722,837.345719 L24.0314096,829.94748 L21.4015286,821.073191 L21.1745316,820.751907 L19.1658228,813.432347 L19.1758164,813.518023 L9.68191901,765.219633 L10.1130704,766.380682 L11.5906921,770.574507 L11.7049044,769.296511 L12.530231,771.629461 L14.7602261,779.538755 L16.7803562,785.181928 L20.8862884,796.802408 L22.136913,799.065675 L24.4839758,806.993533 L26.9523891,815.312643 L29.5150276,824.754105 L31.7592993,834.865265 L34.7887805,847.078336 L40.1910223,863.458101 L41.4473576,867.733319 L45.234923,878.007263 L46.8567376,882.879354 L49.7463088,888.40972 L51.9820146,890.20177 L54.1192122,892.940537 L55.3055925,894.708312 L54.7844989,893.001938 L59.1317045,900.067327 L61.4430759,904.475341 L61.8142659,903.788508 L63.9528912,907.672473 L66.3670537,913.29851 L69.387969,921.55622 L74.2676895,933.723597 L76.9274084,939.203986 L78.8961429,941.477247 L78.7148309,940.112148 L81.4604946,943.958416 L85.6977709,950.371242 L90.2776841,956.34141 L93.2928888,961.150672 L97.5087503,968.992854 L98.6722881,971.081914 L102.429873,977.082068 L105.924769,981.891331 L111.338432,989.957698 L120.265551,1003.60584 L125.55358,1011.39804 L130.316233,1018.80328 L135.708482,1027.70927 L137.527312,1031.23482 L139.635957,1033.59661 L140.586774,1036.72235 L143.33358,1040.91617 L145.756309,1046.82494 L148.577352,1051.3015 L149.656659,1053.54192 L155.785576,1062.01239 L159.807277,1067.88403 L164.554225,1073.64286 L166.347359,1076.35735 L165.924773,1077.31835 L167.135423,1079.21036 L166.404465,1079.84864 L167.500903,1080.92244 L166.361635,1080.307 L163.019498,1077.56824 L160.730969,1076.4516 L158.293964,1073.54291 L154.297961,1070.07447 L152.17504,1069.51329 L150.173469,1068.5166 L150.084955,1068.4295 L147.09402,1066.43183 L147.1033,1067.26445 L145.699916,1065.95647 L142.453432,1062.15389 L141.459785,1060.93016 L115.909351,1025.14828 L113.429231,1022.16191 L102.299385,1006.08843 L100.092233,1002.60714 L97.1084362,997.800737 L95.1782484,994.684997 Z M771.518931,1056.47745 L771.867278,1060.01157 L769.680113,1063.05592 L766.647776,1065.90892 L762.264879,1068.44492 L759.203989,1066.5472 L761.640994,1062.93454 L764.534848,1060.34285 L765.015968,1060.02157 L767.088921,1057.63265 L771.518931,1056.47745 Z M268.335801,864.094672 L269.936201,865.434068 L272.525965,870.373272 L268.248714,878.325405 L264.124223,874.302931 L261.293185,870.363277 L259.889802,868.385596 L264.368351,867.664492 L268.335801,864.094672 Z M15.931616,711.794553 L17.3192955,712.374292 L18.657007,713.815071 L20.6385904,717.053613 L24.1648952,725.122836 L25.8266841,726.852057 L27.1244214,731.40572 L27.8411036,735.142608 L25.7353143,733.1635 L26.4534241,736.89896 L28.9332587,741.227011 L30.2381342,745.475098 L30.7435236,749.206274 L33.5902652,756.410172 L37.446358,768.506153 L42.3346444,782.938224 L49.7927075,801.98536 L55.7874256,815.1223 L61.0183489,827.2397 L61.8678029,835.15185 L63.7009103,844.564754 L62.4431474,847.057916 L60.6828503,850.290746 L58.2215752,848.410164 L54.1156431,842.544235 L50.590766,839.442775 L47.4385065,834.936233 L44.3961764,828.343488 L43.6024009,823.495672 L42.2532681,821.052486 L39.1709637,811.77952 L36.6897015,806.134919 L34.935115,804.278613 L32.6680009,801.242837 L29.4486417,794.845718 L27.497039,787.678946 L25.4626324,781.780174 L25.3684073,777.839092 L24.7902075,771.71328 L24.2748245,767.41236 L24.4061687,764.015318 L22.8885727,755.035077 L21.5008933,743.624502 L20.2645451,737.401591 L19.0538948,734.985536 L19.6563647,732.800806 L18.2701129,722.756758 L16.7382404,717.95178 L15.931616,711.794553 Z M6.99650231,751.558643 L9.68191901,765.219633 L9.38782233,764.427276 L8.51980886,760.066383 L8.09722335,758.057288 L6.99650231,751.558643 Z M6,746.486642 L6.64387184,749.763737 L6.79520314,751.627327 L6.17417376,747.721943 L6,746.486642 Z M961.263107,670.836286 L961.043249,676.066787 L960.540715,681.147356 L967.233555,679.880784 L967.145041,685.238371 L965.126338,689.459327 L960.256611,692.680733 L952.480182,697.637072 L947.170737,700.016001 L947.210712,706.11611 L942.236766,703.537272 L934.765854,704.369754 L930.04032,710.087179 L921.384455,718.656177 L914.213351,720.511056 L909.569193,721.931844 L903.830025,718.900352 L901.098923,713.441383 L894.000629,709.304674 L894.701607,704.853822 L901.524364,698.839388 L914.433209,692.482251 L919.682692,692.626472 L926.277025,691.082881 L934.243333,688.555448 L940.766283,685.354033 L947.119342,679.233932 L950.924039,678.200112 L954.530292,672.858233 L961.263107,670.836286 Z M985.910122,609.171203 L988.845378,609.967987 L990.530009,617.894417 L995.152752,623.900283 L993.406731,634.097119 L993.729381,647.863776 L997.090078,641.014004 L998.826105,645.671906 L996.324856,653.975309 L1000.43507,660.682288 L1004.31686,664.377766 L1009.93182,663.125473 L1012.6358,666.586771 L1006.90948,674.396111 L1001.99407,678.654193 L997.192869,675.208602 L994.026333,677.249112 L992.44021,681.714244 L990.5657,683.012231 L985.574623,686.884772 L978.871789,691.766859 L971.786343,692.589346 L972.224633,689.216579 L970.083152,686.096556 L977.821035,680.16637 L978.336418,673.242345 L972.925611,664.838987 L974.844377,661.274878 L981.351623,660.675148 L985.828745,653.534079 L988.477043,646.879933 L988.706895,638.358057 L989.717674,636.747354 L987.941673,630.403068 L986.19708,618.232836 L985.910122,609.171203 Z M741.318343,602.285161 L746.707736,604.000103 L754.405645,609.097807 L759.16687,608.232483 L766.143814,607.168676 L771.160589,608.830785 L769.624434,622.193338 L766.039595,625.580383 L763.71823,634.413548 L761.553907,631.039353 L754.522713,637.921968 L753.156448,637.108049 L747.969782,635.92858 L744.287863,625.409032 L744.349252,617.832445 L740.717301,607.382865 L741.318343,602.285161 Z M742.70745,282.649124 L745.748353,287.688283 L746.339401,293.658451 L749.080497,295.106371 L749.327481,299.103142 L753.097914,304.346495 L753.654699,309.93255 L753.10648,313.403844 L756.688463,321.440224 L763.932379,318.595791 L767.247391,323.100905 L772.499729,327.731676 L771.086351,331.822691 L772.903755,340.702977 L774.13582,345.916343 L776.756992,347.509911 L779.251103,356.461594 L777.733507,361.530739 L780.663053,368.88457 L791.607446,375.968522 L798.717162,382.02151 L805.038813,387.658971 L803.679686,389.943656 L808.98342,397.465983 L811.468965,409.47486 L815.760492,407.929841 L819.636572,413.315987 L822.015043,412.147941 L822.507584,423.539953 L828.903473,431.44068 L833.016543,436.481267 L839.609448,446.860878 L840.814388,455.869678 L840.233333,462.015481 L838.5073,468.482568 L841.528215,478.636566 L839.610876,488.023767 L837.098205,492.450345 L832.752427,501.519117 L832.025752,507.790578 L829.021968,515.104427 L823.015829,523.916173 L815.489238,527.920084 L810.803679,535.570923 L806.619225,540.404461 L802.470464,549.233341 L798.010473,554.069734 L794.417069,561.886214 L792.197067,569.405684 L791.934379,572.941235 L786.27516,575.827078 L776.464323,574.42628 L767.915532,577.746214 L763.238539,581.36744 L757.265236,585.4199 L750.688035,579.305511 L745.544198,576.628146 L747.482952,570.944991 L742.464749,572.471446 L733.990197,579.76102 L726.680609,575.795663 L721.735217,573.525257 L716.687033,572.265825 L708.263876,568.21622 L702.871628,560.93807 L701.733788,552.223423 L700.066288,546.431746 L695.650555,541.665321 L686.722009,539.840429 L689.941368,534.527108 L688.243888,526.069489 L683.25281,533.64322 L674.811094,535.301045 L680.014891,529.429404 L681.562468,522.873785 L685.481378,517.594734 L685.063075,509.442691 L676.908317,518.637122 L671.036377,522.164105 L667.161725,531.027256 L659.782183,526.257975 L660.161938,520.433456 L654.379941,512.264278 L649.207551,508.213245 L650.926446,505.501609 L638.718579,498.887446 L631.750201,498.856031 L622.538979,493.779746 L605.114465,495.627485 L592.815228,500.539559 L581.997896,505.138916 L572.992256,505.257434 L563.2114,512.168607 L555.28935,515.68131 L554.185773,521.670041 L551.314762,526.743471 L543.311335,528.080012 L537.759189,529.904904 L529.201833,529.332305 L522.727423,531.629841 L516.505708,533.154869 L512.142798,540.0946 L509.144725,540.288798 L505.078768,544.274146 L501.445389,548.596485 L494.939571,549.610314 L488.844917,550.991121 L478.233167,546.16044 L473.020803,545.272268 L471.804442,539.01937 L476.043146,536.374847 L477.208111,533.514707 L476.184483,529.807805 L475.76047,521.821402 L473.6247,515.65418 L467.02894,505.917137 L464.259292,500.166869 L463.512629,493.926823 L458.592934,488.00092 L457.704933,484.935158 L452.885174,481.74945 L450.416761,473.724493 L443.474081,466.770482 L441.341166,462.763716 L446.252295,466.202167 L441.471083,457.193367 L446.834778,458.973994 L450.269713,462.258229 L449.049069,457.049147 L443.18855,450.070861 L441.581012,446.912284 L438.985537,444.411981 L439.076907,438.169079 L440.437461,435.169001 L441.042787,429.577234 L439.05692,423.781273 L442.260575,415.325082 L444.11367,422.983061 L447.018945,414.816739 L454.836777,409.339206 L458.966979,403.748867 L466.527834,398.137109 L470.842203,396.430735 L473.924508,397.020469 L481.592436,391.38158 L487.775604,389.028354 L489.023374,386.430953 L491.538899,385.034439 L497.526479,384.067731 L508.115387,379.097113 L513.386285,373.722391 L515.587727,367.835043 L521.278355,361.786338 L521.74377,357.655342 L521.352593,352.269196 L528.472302,342.653527 L533.264935,350.511416 L537.770611,347.969704 L533.616138,343.832996 L536.806944,338.538238 L541.582446,339.983301 L542.714576,332.241074 L548.320972,326.742122 L550.870761,322.512598 L555.903241,320.406404 L556.168784,317.492003 L560.942859,318.161701 L561.236955,315.758498 L565.912521,313.760826 L571.00639,312.087294 L579.466666,315.728511 L585.582735,321.010418 L592.699588,320.660575 L599.443825,321.073247 L596.926871,315.79134 L602.301988,307.702126 L607.030377,304.926234 L605.387147,302.671535 L610.07699,296.936975 L616.834075,293.322888 L622.460458,294.102537 L631.67168,292.179118 L631.631706,287.241342 L623.151443,284.37549 L629.177569,282.88616 L636.846925,284.999494 L642.500434,288.852045 L652.154229,291.092464 L655.370733,290.269978 L662.19349,293.117267 L668.632208,290.564131 L673.046514,291.476577 L675.47067,289.720225 L680.644487,294.48665 L677.385153,299.540088 L673.350604,303.278404 L669.350318,303.531148 L670.920737,307.419396 L667.29878,312.242938 L663.691099,316.936539 L664.470597,319.838089 L673.147877,325.289919 L681.408282,328.77692 L686.874768,332.413853 L694.6255,338.631053 L697.763483,338.785269 L703.576889,341.709666 L705.060221,344.759721 L715.093772,348.916421 L722.62179,345.98774 L724.776119,340.761522 L727.287362,336.634809 L728.672186,331.230101 L732.506864,323.6835 L731.100625,318.958485 L731.994337,316.154034 L731.003545,310.495154 L732.439765,303.248418 L734.885335,301.637715 L733.000833,298.307786 L735.95322,293.451402 L738.116116,288.397964 L738.597235,285.827693 L742.70745,282.649124 Z M1080.22321,464.406547 L1083.35548,467.862134 L1085.70826,467.756467 L1087.86259,472.308702 L1085.18716,476.222654 L1080.05047,474.246401 L1076.07731,470.229639 L1076.25576,465.566025 L1080.22321,464.406547 Z M1089.33735,462.47456 L1093.47041,463.101421 L1096.10872,464.406547 L1101.54237,464.920601 L1103,465.611719 L1101.10122,469.341467 L1100.4288,469.421431 L1094.83097,468.240535 L1089.30166,466.626976 L1089.33735,462.47456 Z M955.892988,428.257114 L959.878997,430.074867 L964.214781,435.432454 L967.798192,440.711505 L970.16667,444.752542 L975.961516,454.144026 L979.759075,460.836726 L975.665992,461.659213 L971.461552,456.717153 L965.949381,449.36475 L961.133905,441.648226 L956.589683,432.079678 L955.892988,428.257114 Z M992.997709,399.886749 L997.958805,408.137319 L994.745157,408.080202 L992.192512,402.389908 L992.997709,399.886749 Z M989.685552,385.406129 L993.560204,390.343905 L993.925684,398.701569 L991.462981,396.321212 L989.706967,396.058474 L988.820394,392.805653 L989.685552,385.406129 Z M532.405916,12.1188274 L524.580089,13.8716094 L518.161358,15.5979747 L509.795307,17.3543265 L504.273143,18.9150521 L507.5182,18.8550792 L514.340957,17.6327725 L513.807014,18.2453538 L520.244305,17.3286238 L531.254371,14.4856186 L538.531122,13.7288166 L543.919087,12.8977623 L544.768541,13.441803 L531.805445,15.9335379 L526.765827,17.5770833 L517.221962,20.0873813 L511.170138,22.382062 L520.081552,21.6352555 L522.188769,23.1545713 L526.548824,24.3497472 L531.959632,25.2150718 L530.994538,27.20132 L524.438752,28.9862304 L526.171923,30.0643163 L531.334319,30.0785956 L528.94871,32.7645287 L525.526624,35.6974934 L519.776035,36.9212279 L511.348595,41.8033148 L501.476369,48.1004786 L490.970265,54.4975973 L475.725778,61.234563 L460.919581,67.9472539 L449.6454,71.2414845 L442.932572,74.7499043 L439.850267,74.3115303 L433.41726,78.0484187 L418.820928,84.3427266 L408.37193,88.2009888 L403.469367,94.2696841 L397.76589,96.3444639 L396.549529,93.6228326 L399.297763,91.1196743 L387.077047,93.9840984 L382.326672,96.2923445 L368.11495,105.015416 L358.519689,112.779062 L355.216098,117.145667 L360.608346,119.845879 L367.565303,123.647024 L375.490209,123.871209 L380.461299,126.304399 L382.884028,135.655901 L379.580437,146.967949 L370.590501,154.047617 L358.436885,162.368156 L349.432673,170.965712 L336.525255,182.033584 L333.55288,179.117755 L336.653744,173.594528 L330.210314,172.701359 L322.359647,175.177386 L318.800506,173.586674 L315.26849,169.041578 L307.388698,170.046269 L299.652243,173.776018 L302.097814,168.27421 L293.810284,172.272409 L291.578861,179.45346 L284.713274,191.338108 L280.690146,198.709073 L280.548808,203.292723 L286.496413,200.532538 L289.294615,204.90771 L290.218307,210.138212 L295.189397,211.587559 L300.905723,209.731252 L305.35886,211.244856 L307.374707,210.93214 L312.906866,212.695631 L316.397479,215.837073 L316.785801,220.539241 L315.549453,224.364661 L316.474572,226.520833 L316.991383,230.691811 L320.442022,231.307249 L323.795581,236.641989 L323.745613,239.346485 L316.670161,242.750666 L307.681653,241.077134 L296.460294,240.160404 L295.595136,236.817624 L290.391338,234.317321 L289.424817,228.908329 L286.348223,226.472283 L287.825845,220.683462 L286.092387,218.678651 L282.684578,217.779056 L281.416821,215.050285 L273.083607,212.514284 L270.880737,217.480619 L269.767167,214.473402 L271.386126,209.654144 L275.059479,201.814818 L275.300324,197.185188 L278.893729,190.826624 L276.765097,188.537655 L279.012224,181.268072 L276.249714,179.992932 L275.37028,174.202683 L276.095528,167.529974 L273.956902,164.751225 L267.029926,170.932727 L256.058407,180.589806 L251.341439,182.951599 L246.650169,184.702239 L252.293684,175.580633 L252.596347,171.335403 L248.834479,168.969325 L250.62333,166.440464 L246.274696,168.698019 L242.959684,167.814131 L242.115084,166.54299 L243.017361,164.198331 L242.965966,162.71043 L241.378415,161.936493 L234.618474,166.434467 L233.897509,168.180823 L229.775873,172.761617 L227.40454,173.778302 L225.528603,175.646032 L223.953901,176.451384 L221.268342,178.129914 L219.094025,180.82727 L214.102947,184.469915 L204.589063,192.37921 L202.533241,196.335999 L197.166691,202.467524 L185.045911,214.529234 L173.708912,228.247341 L167.073178,236.336555 L158.518676,246.541958 L157.296605,249.442081 L153.319162,254.097127 L146.533523,261.946449 L143.335579,265.362053 L139.636528,271.986213 L137.77344,279.32148 L136.448577,284.393482 L131.727326,293.640745 L128.653588,305.376888 L125.340003,308.936713 L121.114148,317.421463 L122.447577,317.852697 L116.304383,325.969042 L113.319159,333.028719 L110.492405,337.725175 L105.882511,337.689477 L105.586986,330.609809 L105.107295,326.244632 L103.946612,325.450704 L102.905853,322.452054 L104.347783,315.682246 L105.075886,312.476547 L103.60112,309.814889 L107.135991,300.053571 L109.75288,293.90634 L113.89022,286.392581 L116.163045,282.158774 L106.891862,295.611286 L103.928053,299.795116 L102.634598,301.251603 L106.159475,295.805484 L146.583491,240.567506 L190.272979,192.379067 L187.138708,195.36001 L192.303103,190.138648 L192.559652,189.857489 L193.313882,189.117679 L193.687356,188.741563 L198.789791,183.753809 L203.108443,179.614245 L206.544806,176.431393 L209.88266,173.645505 L212.592347,171.349396 L212.72569,171.394233 L255.144709,135.148415 L311.542742,96.3658828 L371.685512,63.6934555 L434.913441,37.4866875 L500.53269,18.0340204 L532.405916,12.1188274 Z M133.357564,306.602764 L135.489051,308.634706 L137.59484,312.879937 L135.209231,321.654556 L132.231145,326.27676 L126.207874,333.6106 L123.682355,331.164559 L124.486124,321.61743 L129.684211,307.142521 L133.357564,306.602764 Z M943.715244,323.585401 L949.244547,327.919163 L951.36033,329.038659 L953.895843,333.142525 L946.739015,330.468015 L943.715244,323.585401 Z M937.643433,303.754333 L941.28966,305.042324 L944.300582,313.521362 L947.864006,319.368729 L945.90812,320.285459 L939.370894,309.9801 L937.643433,303.754333 Z M928.162384,309.014821 L934.623945,312.684596 L937.727664,315.720372 L939.306649,318.888945 L935.294942,317.640936 L929.180301,314.55661 L927.111631,312.391871 L928.162384,309.014821 Z M915.414864,287.316022 L920.1147,290.864424 L928.315143,297.84271 L930.6722,301.506774 L930.889203,303.500162 L923.08993,296.901705 L917.754788,291.999627 L913.870143,287.614459 L915.414864,287.316022 Z M411.369146,277.76361 L415.499349,282.378675 L431.593289,279.739863 L444.953273,281.746102 L432.902448,288.28173 L420.867327,287.839072 L411.423397,290.664943 L400.858759,293.15525 L391.045068,294.611736 L378.57594,295.191475 L371.153568,296.772192 L366.844909,299.388157 L348.44959,302.505324 L346.360933,299.372449 L337.368142,302.26686 L343.584146,291.268956 L355.537891,287.209356 L364.132367,287.494942 L368.209746,286.832383 L369.877245,289.362672 L389.544603,283.752342 L391.560451,279.382881 L411.369146,277.76361 Z M261.374133,239.792141 L268.719412,242.789363 L275.729192,244.091633 L280.603202,244.708498 L289.096314,248.631017 L299.038494,244.075926 L306.886307,245.700909 L312.39134,249.903301 L319.769454,250.294554 L315.914789,258.488006 L321.593996,258.883543 L325.144571,257.679799 L327.023363,262.60044 L330.344086,265.851833 L337.88638,263.55144 L342.733265,266.909927 L340.650318,278.410462 L341.041495,291.79729 L329.997166,296.38094 L321.411256,292.601213 L308.421035,291.143299 L304.003874,287.900473 L296.475856,284.430608 L291.818849,280.372435 L284.113802,272.561668 L275.996163,269.931424 L273.376418,264.576693 L270.169908,260.198664 L262.059407,259.731732 L257.43952,255.896317 L250.876595,255.343708 L242.192178,252.500703 L241.899509,249.039405 L247.594419,246.110724 L261.374133,239.792141 Z M629.126317,188.852227 L647.198985,191.906566 L649.254807,194.850954 L652.541266,208.152106 L664.025312,213.316923 L673.886117,204.627979 L686.61365,199.991496 L696.862776,200.424158 L706.682179,203.805492 L714.84693,207.342471 L727.084921,209.8462 L746.568112,217.321405 L767.553194,224.5967 L775.134035,230.047102 L781.074503,235.214774 L782.959006,240.616627 L801.18015,248.797228 L803.807033,254.003455 L793.433701,253.223806 L795.620867,259.469564 L805.303214,267.04044 L811.967502,277.896979 L818.267738,278.746596 L817.66384,282.799057 L825.788618,285.983337 L822.566403,287.124252 L834.019042,293.331456 L832.305857,295.579015 L825.273235,294.802222 L822.682043,292.009194 L813.369458,289.104788 L802.453617,285.710603 L794.445908,278.580957 L788.325556,272.505122 L782.659198,263.743354 L768.402648,257.703217 L759.098628,259.211109 L752.185929,261.404407 L753.198136,268.167076 L744.680753,270.441765 L738.297713,268.215625 L726.629499,266.863377 L716.682893,258.660786 L705.371592,256.047677 L702.497725,258.560831 L688.298281,258.055344 L693.246529,251.047072 L700.591808,248.910891 L697.439548,239.036767 L692.198631,231.497306 L670.152802,223.463781 L660.735998,222.591317 L643.519922,214.77341 L640.247739,218.941532 L636.151801,219.74974 L633.275078,216.705397 L633.265085,213.034193 L624.643484,209.037422 L636.944148,205.838862 L645.153157,205.873133 L643.919665,203.7241 L627.501647,203.895452 L622.980267,199.173293 L612.724003,198.149468 L607.798597,194.285494 L623.381438,191.676669 L629.126317,188.852227 Z M490.546823,281.042134 L496.581515,282.828472 L500.650328,284.850419 L499.996463,287.554915 L495.298055,288.555892 L480.46616,284.754747 L490.546823,281.042134 Z M479.079908,273.385582 L482.009453,276.609844 L469.617419,281.057841 L461.922365,284.007941 L456.107532,285.163135 L459.678094,279.091584 L465.502921,277.803592 L468.445315,273.846803 L472.474154,275.526047 L479.079908,273.385582 Z M897.030967,275.187199 L903.229839,280.747552 L907.178729,284.914247 L904.897339,284.694346 L900.508731,281.345854 L896.564124,276.60656 L897.030967,275.187199 Z M546.28528,268.193635 L547.543043,269.794343 L547.635841,272.657339 L540.698871,280.425269 L531.242093,283.785184 L530.002889,282.82276 L531.062208,279.44571 L535.623562,273.208519 L546.28528,268.193635 Z M523.270074,263.991242 L521.863835,269.254586 L505.318756,274.422258 L490.686733,275.90302 L490.529691,272.597366 L499.117028,269.146063 L505.958345,270.819595 L513.453527,268.804788 L523.270074,263.991242 Z M877.471111,256.009694 L878.511871,259.009771 L881.875423,261.884191 L886.582397,268.68113 L891.36932,273.103424 L890.095853,275.228181 L887.002127,275.299577 L882.61923,270.531725 L878.296295,263.834741 L876.281875,256.60514 L877.471111,256.009694 Z M568.222608,260.136835 L572.686881,260.985025 L568.713721,263.722363 L557.164002,268.862905 L547.635841,272.65691 L547.543043,269.793914 L546.28528,268.193207 L547.421693,265.994197 L556.992683,262.852755 L565.030374,261.707556 L568.222608,260.136835 Z M844.345261,240.533807 L850.999555,241.874632 L852.911184,243.652403 L852.755569,248.411688 L848.665341,252.772581 L843.168875,252.312788 L841.121619,254.306176 L835.162592,255.181496 L829.581894,256.185329 L823.678546,255.014428 L814.68861,250.707796 L808.820953,247.209372 L809.69896,244.629106 L819.561192,247.80339 L825.510225,248.191787 L827.22341,244.29497 L828.803823,244.459182 L829.833161,249.356976 L836.149101,249.896733 L839.391303,247.556359 L845.366034,245.842845 L844.345261,240.533807 Z M466.673597,173.464872 L460.204898,181.55837 L468.305405,186.880258 L466.28242,190.901304 L478.450313,195.534932 L465.418689,199.183288 L461.862404,205.306245 L462.273568,212.45731 L451.743194,220.485123 L451.864545,228.63431 L447.885674,242.469507 L446.2453,239.899236 L433.963194,246.794702 L429.56031,242.603732 L422.243585,244.110196 L416.808507,242.959286 L404.327958,249.479207 L400.42047,246.533391 L393.267924,249.307855 L384.609204,251.029937 L382.863184,240.476119 L377.605135,239.93065 L372.705428,234.541649 L371.220668,228.128823 L372.401337,220.519393 L378.817213,213.148427 L380.587504,217.779199 L387.651535,219.963929 L394.063128,216.319856 L400.863042,214.791973 L406.981966,209.061696 L412.32853,206.851263 L422.260717,206.251534 L431.142151,202.283321 L436.75283,190.23589 L441.082904,186.550407 L444.849054,177.163206 L457.313899,174.25166 L466.673597,173.464872 Z M837.987919,225.077911 L843.842727,228.6563 L847.725945,231.407917 L851.984636,234.419418 L856.575971,239.014491 L860.393517,242.58574 L861.418572,247.303615 L858.236332,248.791517 L856.450337,243.43393 L853.820599,239.407172 L849.203567,235.550337 L843.01326,230.661111 L835.195428,226.522975 L837.987919,225.077911 Z M546.239595,178.989527 L548.25687,180.500275 L538.911449,189.391984 L530.424047,192.026512 L519.950779,192.012233 L501.10575,195.443544 L491.531904,198.240856 L489.944353,204.636547 L499.950778,210.028404 L505.922654,205.341943 L526.799234,199.333221 L526.009742,203.237177 L520.770253,202.871627 L515.974764,208.263485 L506.383786,213.074175 L516.942713,221.955889 L514.9854,225.190147 L525.208828,233.6035 L525.338745,239.30379 L519.391139,242.603732 L514.912589,240.259074 L520.353378,232.371198 L509.223389,237.398933 L506.372365,235.468374 L507.894244,231.938536 L499.808013,228.271616 L500.464733,219.978208 L492.936715,223.925002 L494.328678,233.52782 L495.058209,245.708048 L487.971336,248.378274 L483.147294,246.719021 L486.075411,238.181438 L484.293699,230.222166 L479.545323,231.147463 L476.266002,225.954088 L480.531832,219.754023 L482.04229,212.889972 L487.553033,199.667356 L489.945781,195.923328 L499.543897,188.495245 L507.92708,189.386272 L521.973765,188.295335 L534.879755,186.087758 L546.239595,178.989527 Z M653.362166,231.117477 L655.813448,233.544955 L655.81202,237.811605 L650.09855,243.807476 L648.867912,237.207591 L650.909457,234.000464 L653.362166,231.117477 Z M567.862839,215.226063 L570.738134,217.740645 L566.702157,220.913501 L558.969984,220.215244 L556.493005,216.812491 L567.862839,215.226063 Z M459.361297,155.19867 L465.014806,157.436234 L465.250369,160.42346 L472.214464,160.908956 L481.174419,161.321627 L480.27928,164.234601 L473.173847,166.042358 L475.016948,169.185228 L466.67374,173.464729 L457.314042,174.251518 L444.849197,177.163063 L441.083046,186.550264 L436.752973,190.235747 L431.142293,202.283178 L422.260859,206.251391 L412.328672,206.851121 L406.982109,209.061554 L400.863185,214.79183 L394.06327,216.319713 L387.651677,219.963786 L380.587647,217.779056 L378.817356,213.148284 L386.239728,213.393888 L394.538679,209.312869 L396.573086,202.346007 L401.150143,199.521565 L413.744905,194.16255 L421.589862,186.190426 L427.149717,180.003356 L431.496923,176.229341 L440.945992,169.860638 L449.334885,162.930902 L455.084047,156.169662 L459.361297,155.19867 Z M594.755553,210.323985 L607.448822,212.068913 L611.576169,218.326095 L601.738207,215.300315 L592.337107,215.296031 L586.216756,216.167068 L578.061997,216.514054 L580.875903,211.761909 L594.755553,210.323985 Z M578.390358,171.747074 L579.182706,175.820954 L586.121103,175.952323 L586.926299,179.133747 L586.506569,185.994943 L580.787388,185.745055 L578.745844,190.749944 L583.652689,194.549661 L580.386218,195.790531 L575.889108,190.989836 L572.638341,181.241369 L574.702728,174.85853 L578.390358,171.747074 Z M551.341031,120.823867 L560.420908,122.871516 L561.094761,126.111486 L561.810015,128.460428 L562.866479,132.908424 L563.558891,136.632461 L559.345885,143.45653 L555.514062,136.759547 L550.167499,140.83057 L553.649547,145.659824 L550.334535,149.35673 L537.155863,146.790743 L534.110678,142.228512 L537.842564,138.393097 L530.767112,136.152677 L527.449245,139.446908 L521.868547,140.019507 L513.729493,145.077229 L511.829286,143.348008 L516.480581,136.839511 L523.737345,133.885127 L529.840565,130.473806 L533.683809,133.068352 L542.166928,130.112541 L543.900099,126.911125 L551.91352,125.847319 L551.341031,120.823867 Z M487.297911,120.441182 L488.791237,125.227598 L481.471656,130.163946 L475.26279,135.884227 L460.790664,145.140058 L466.190051,139.382651 L474.294841,133.618105 L481.278923,127.889256 L487.297911,120.441182 Z M537.130165,113.241568 L535.968055,119.390227 L531.870689,122.04903 L528.064564,126.619828 L524.372651,129.194383 L517.891103,125.648837 L520.379504,123.485525 L523.264792,121.282232 L524.715288,117.129817 L530.67146,115.953204 L528.812654,120.481164 L537.130165,113.241568 Z M526.996679,112.499045 L526.415624,115.153564 L521.090475,118.647704 L514.247731,121.563534 L514.067847,118.647704 L515.095757,115.363469 L513.375435,112.666113 L519.90124,113.551428 L526.996679,112.499045 Z M550.330252,103.670164 L553.354022,105.619287 L556.14223,112.133495 L547.476372,111.509491 L547.754764,113.527153 L550.328824,117.161231 L544.676743,119.161758 L544.522556,114.788014 L541.361731,114.856555 L540.009743,111.258175 L546.324255,111.005432 L546.072988,108.689332 L540.061138,104.829642 L550.330252,103.670164 Z M506.811083,104.678282 L510.108963,106.151904 L506.883893,111.846482 L502.489575,109.594639 L497.515629,106.10621 L506.811083,104.678282 Z M406.227594,94.5395625 L407.758039,95.7618692 L402.838344,99.2802845 L399.841699,102.887231 L390.606207,108.206264 L382.986819,109.328616 L384.011874,105.069106 L389.645396,101.115172 L400.61406,96.2530765 L406.227594,94.5395625 Z M521.47737,75.2286887 L522.423904,76.3667475 L520.216751,78.7028382 L523.52177,81.9071093 L520.255298,86.772061 L513.478226,89.6122104 L511.388141,94.2943873 L513.196978,98.4510865 L518.964699,98.1255189 L523.71022,96.7132978 L537.095902,97.9884377 L535.645405,101.408326 L539.073202,102.382173 L537.685522,105.243741 L529.64926,103.460259 L525.607572,101.001366 L522.672316,103.561642 L516.37208,101.008506 L506.1615,103.584489 L500.874898,103.207516 L501.925652,100.65438 L505.569024,98.6509965 L502.258295,97.8699197 L500.849201,100.158889 L495.859551,97.8699197 L494.6489,95.7166038 L495.017235,90.53608 L498.960415,91.5570487 L501.366011,83.0137537 L505.561886,77.6961488 L511.989183,76.6780359 L518.229457,77.0250225 L521.47737,75.2286887 Z M520.393352,46.2767285 L524.41077,46.7665079 L521.973765,49.3667654 L514.442891,56.9833349 L509.18056,61.2913946 L504.547823,58.5826146 L504.260865,55.7153346 L511.204973,50.6618963 L520.393352,46.2767285 Z M703.039948,2.68921736 L712.088418,3.30322652 L718.011753,4.76685302 L718.461464,5.53365052 L711.047658,5.9720245 L712.175505,7.37710595 L709.174576,8.30954312 L711.188996,9.26911094 L707.025958,10.1758454 L695.21355,10.2800842 L678.702735,9.63751644 L665.688243,11.6323323 L659.149589,10.7513005 L658.758412,9.26054337 L642.494581,9.75603448 L631.184708,10.9426429 L619.937651,11.3895845 L629.274507,12.5861884 L622.515994,16.8442705 L616.054433,18.1950907 L611.307485,17.4568518 L614.141377,15.1050539 L608.402209,14.7337925 L604.637486,13.4586526 L614.022882,12.2491973 L619.056789,10.7298816 L628.707728,9.34621906 L635.601868,7.9197187 L654.345534,7.20147077 L664.046442,7.60557447 L673.606011,5.05101076 L679.644986,5.91347944 L692.580957,5.14525402 L697.516356,4.94391613 L702.139099,3.95864561 L699.78347,2.86628046 L703.039948,2.68921736 Z M632.724289,0.404103707 L623.385864,0.899594825 L621.711226,1.09664893 L618.713438,1.21659491 L614.865912,1.56786527 L612.206193,1.89057706 L612.06771,2.31609969 L607.267938,2.77160882 L605.591873,3.00864492 L602.259729,3.46986575 L596.199339,4.06673978 L592.201908,4.6379111 L591.503786,5.09056437 L590.464454,5.28333469 L593.809446,5.14625357 L598.536408,5.23764098 L605.440399,6.18035924 L607.327757,6.96143602 L606.651049,8.81631487 L602.979124,10.0271981 L594.144802,11.023892 L586.444038,12.4532482 L577.972341,13.4270953 L577.47409,12.4446807 L579.824008,10.9153695 L576.881613,9.60167544 L583.872834,8.67352204 L578.556394,8.04923179 L574.263439,8.27912825 L573.095618,8.64182204 L570.431616,9.05449331 L570.324542,8.83316443 L567.866123,9.01879511 L565.816012,9.08733566 L568.577094,8.24914176 L570.914163,7.86217319 L570.502999,7.71366865 L573.328326,6.86976302 L572.88147,6.7826594 L568.030303,7.25815952 L564.007175,7.5551686 L571.923515,6.10724931 L582.065567,4.64076696 L588.606077,3.62479597 L592.258015,3.43345358 L595.906527,3.13287468 L599.518491,2.82301424 L598.78482,2.65023491 L612.136666,1.53573688 L615.800025,1.15876381 L619.662685,1.09093722 L620.867625,0.986698451 L620.850351,0.915302037 L622.797813,0.821058769 L626.835789,0.474786158 L627.092767,0.466218588 L627.050793,0.471216337 L632.724289,0.404103707 Z M647.581311,9.70034528 L654.706731,10.1272958 L655.737497,10.8041339 L650.253879,12.1006927 L646.496294,11.4495574 L641.669397,11.9935981 L638.826938,13.3586976 L632.675178,12.83322 L633.127744,11.796544 L638.370089,10.4485797 L643.803739,10.5728095 L647.581311,9.70034528 Z M586.629633,3.93108659 L582.065995,4.64005299 L571.923943,6.10796328 L564.007603,7.55445464 L551.81544,9.47787405 L544.614354,10.9586357 L534.836354,12.8177983 L540.232885,11.5126719 L539.033656,11.391298 L546.877186,9.64779752 L545.010671,9.77988089 L567.826577,5.54821539 L586.629633,3.93108659 Z M545.010671,9.77988089 L532.405916,12.1188274 L535.267505,11.4798295 L543.465093,9.89197326 L545.010671,9.77988089 Z M730.477169,4.70645166 L732.636638,4.85252872 L739.875414,5.77025824 L730.477169,4.70645166 Z M697.766195,1.70394683 L701.38387,1.77534325 L710.246744,2.47360018 L710.730719,2.47074433 L730.477169,4.70645166 L726.664762,4.44842501 L712.693743,2.83058226 L709.151734,2.94767238 L699.689245,2.24370373 L697.766195,1.70394683 Z M661.615576,0 L664.103976,0.0299864942 L632.724289,0.404103707 L634.794245,0.295581157 L639.771046,0.294153229 L645.200413,0.201337889 L656.324691,0.0228468527 L661.615576,0 Z" id="Shape" fill-opacity="0.1" fill="#FFFFFF"></path>
            <path d="M464.092056,483.47133 L454,482.493134 L458.016256,485.145384 L458.904631,488.205453 L463.824972,494.124534 L464.57195,500.355895 L467.205654,505.810119 L467.227078,505.559153 L469.896488,500.743751 L473.729927,495.46777 L471.88462,490.836314 L468.316837,486.621233 L464.092056,483.47133 Z M518.297224,513.167974 L511.742958,510.944932 L504.120356,508.071661 L497.641788,511.449715 L491.184643,508.113014 L487.05984,516.72427 L474.218391,515.656241 L473.657086,515.402423 L473.941309,515.82165 L476.079408,521.980288 L476.502172,529.955575 L477.526231,533.655892 L476.360774,536.512051 L472.121711,539.15432 L473.338585,545.398515 L478.553147,546.28545 L489.169373,551.109408 L495.266598,549.730523 L501.773732,548.718105 L505.408643,544.400356 L509.477744,540.420555 L512.475653,540.228053 L516.841832,533.296555 L521.456527,532.16721 L518.297224,513.167974 Z M579.313745,496.982119 L572.298152,493.599788 L566.03525,488.040044 L566.935051,497.069102 L560.18797,497.067676 L554.384967,492.667222 L549.434632,497.851943 L550.067349,503.501521 L554.810587,520.350438 L555.641832,515.847317 L563.567224,512.339502 L573.352205,505.437948 L582.361643,505.319595 L583.524244,504.827646 L584.144107,499.621536 L579.313745,496.982119 Z M508.840742,379.052534 L508.446543,379.453223 L497.853169,384.416924 L491.864492,385.382286 L491.291762,385.70027 L495.677936,392.077078 L511.917205,392.868475 L519.416977,390.695341 L520.458176,385.185506 L516.283384,381.479485 L509.123537,379.764079 L508.840742,379.052534 Z M840.706,462.256182 L841.285872,456.118933 L840.080424,447.124098 L833.484738,436.757508 L829.369933,431.723937 L822.972775,423.834206 L822.478598,412.459476 L820.099124,413.62447 L816.221409,408.247247 L811.9295,409.788689 L809.441478,397.796526 L804.135508,390.28467 L805.496636,388.003165 L799.172318,382.37355 L792.058176,376.328987 L781.109166,369.256321 L778.179813,361.911299 L779.698049,356.850635 L779.385261,355.72842 L772.66246,354.229756 L767.447898,353.794844 L761.449223,351.39356 L756.707414,351 L755.183465,357.526531 L761.69774,359.495756 L761.96768,363.372889 L759.416815,367.205818 L756.036133,372.07398 L752.384083,375.815648 L747.615137,375.417811 L744.201605,372.190907 L741.283678,375.993891 L741.506486,381.898712 L750.918692,384.153125 L751.668527,388.259834 L754.142266,389.568848 L759.643908,390.028001 L764.699934,387.139045 L770.155871,383.914992 L774.797703,385.771567 L772.915262,390.397319 L768.816167,390.790879 L765.896812,394.593863 L770.571494,396.086823 L770.125878,401.198821 L777.111478,397.367318 L777.589943,391.888854 L780.587852,391.404034 L780.206508,395.784524 L779.695193,401.628029 L785.248251,405.767536 L787.769123,410.758329 L791.006979,411.763617 L794.993242,408.41836 L794.022028,415.324191 L796.815696,421.442903 L799.032349,425.672244 L801.823161,423.329423 L799.573658,419.465123 L800.417757,414.018029 L803.368534,418.310111 L806.513554,420.410522 L808.601664,426.101452 L810.485533,429.935807 L815.670102,434.045369 L815.257336,438.792326 L819.93059,440.285286 L821.480247,443.490801 L823.9597,448.654132 L822.727115,451.02975 L818.650872,452.440005 L814.798866,451.243641 L809.258662,450.929934 L806.509269,447.201099 L807.25339,442.014952 L811.136818,441.172221 L811.129677,439.568037 L811.262505,436.371078 L807.790414,434.186537 L803.402812,434.112388 L801.398969,438.611231 L803.561349,440.685975 L802.575852,445.270375 L799.035206,445.558415 L796.415784,441.986433 L793.93776,443.530727 L791.35833,446.231459 L786.767916,445.119225 L783.290113,441.331926 L789.544445,441.852395 L791.491158,443.035926 L793.539277,439.70778 L790.578503,436.689063 L787.386351,438.028021 L788.90173,430.718649 L791.879644,428.488477 L791.291202,423.481999 L785.019731,424.85518 L784.521269,428.896296 L786.35515,431.381711 L785.286814,435.228899 L782.371744,436.736119 L781.884709,433.925589 L776.64301,435.238881 L776.605875,439.02618 L774.736288,440.328064 L777.164323,442.717941 L779.465243,446.553722 L781.693323,451.2579 L785.866686,453.793223 L788.451829,456.050488 L791.468306,456.737791 L791.069823,459.619617 L791.936774,461.44197 L793.252198,463.155951 L797.22989,459.551172 L796.999941,452.094928 L801.1933,456.088988 L802.27449,458.803979 L804.728234,457.549151 L808.014651,453.449571 L812.815019,453.850261 L813.933343,456.128914 L822.381477,456.687883 L821.420261,460.981391 L816.659884,460.147216 L813.12495,462.040865 L808.021792,461.759955 L805.792284,465.511605 L806.397865,468.624434 L810.034205,468.926733 L810.1856,467.189937 L810.906869,465.645643 L813.000692,466.840582 L817.633954,465.768274 L820.97893,466.046333 L824.185364,467.917167 L825.822145,464.262481 L826.112081,460.934335 L831.189531,461.503285 L833.90893,463.915977 L834.07318,468.741361 L838.457925,473.917526 L838.223691,478.27235 L838.60932,482.240743 L837.845204,485.966726 L835.771376,486.231951 L833.241935,484.999938 L835.310049,483.131956 L835.360038,479.199211 L834.764456,475.942362 L834.840153,471.720151 L831.849385,470.741956 L830.976721,477.376859 L832.522094,479.838033 L832.199308,481.851461 L830.662505,484.348283 L826.937613,481.706015 L823.454097,483.019307 L822.175808,480.87184 L824.021115,473.153222 L822.34577,470.535195 L818.533755,468.905344 L815.0988,469.639704 L815.561555,472.741125 L814.955974,476.334496 L816.162851,480.954544 L818.793698,481.027267 L819.003652,483.669536 L817.839623,486.926385 L820.793256,488.338066 L824.568137,490.401402 L826.9319,490.160418 L829.961231,487.352741 L830.796761,491.212763 L828.121637,493.321729 L823.916852,492.826928 L819.806331,489.567227 L816.341383,488.988295 L815.185924,493.847901 L811.910933,497.804887 L810.519812,500.313117 L807.916101,503.303315 L800.991916,503.748209 L798.438195,506.159475 L797.794051,510.187757 L801.310417,513.542996 L806.92632,516.342118 L806.256468,520.659867 L799.896444,523.046892 L798.625296,529.209808 L799.859309,533.540391 L799.133755,536.834314 L796.242965,538.050641 L795.386012,544.540098 L791.179798,547.397684 L792.288125,549.823209 L795.013237,550.487697 L798.415343,551.791007 L797.10706,555.036449 L792.926555,554.250755 L791.541147,551.655543 L789.493028,548.277489 L783.777148,549.988618 L778.504027,553.341005 L776.891526,556.704799 L777.165751,558.624116 L783.867128,559.036213 L784.759788,563.921486 L789.193094,565.164906 L789.855805,569.302987 L792.583774,570.371016 L792.649474,569.496915 L794.868983,561.98791 L798.465332,554.18231 L802.927203,549.352649 L807.077715,540.537482 L811.263933,535.710673 L815.951469,528.069056 L823.479806,524.072143 L829.488478,515.272662 L832.494957,507.968993 L833.221939,501.704835 L837.56955,492.648685 L840.081852,488.228269 L842,478.855559 L838.979239,468.714268 L840.706,462.256182 Z M653.728734,511.617976 L654.77279,512.43504 L660.558654,520.592848 L660.178738,526.40926 L667.559965,531.171903 L671.05205,523.202319 L667.122918,518.562308 L661.114246,513.304864 L653.728734,511.617976 Z M762.927468,619.293621 L758.365619,620.033684 L760.186645,624.941772 L765.582596,629 L766.479541,625.593427 L770.067319,622.211096 L771.604123,608.867141 L767.653567,607.559554 L765.305514,611.376797 L762.927468,619.293621 Z M732.418494,559.418365 L725.784245,556.533687 L725.85423,554.061105 L730.247545,552.385625 L734.937937,548.984756 L740.85663,548.311712 L744.917161,552.148918 L747.686549,557.336491 L752.291246,558.303279 L753.535257,555.782216 L760.503718,556.50802 L761.356387,558.474392 L766.118192,559.308567 L770.621483,558.07798 L774.444924,559.563811 L782.020393,560.048631 L782.59598,565.199129 L785.588176,566.177324 L787.46062,568.227827 L788.807465,571.256526 L792.175293,573.135916 L786.725068,575.909371 L776.910093,574.511949 L770.180152,577.119994 L766.425267,575.953575 L764.300022,573.445345 L755.801899,570.112921 L748.606346,565.286111 L740.023956,561.217902 L732.418494,559.418365 Z" id="Fill-93" fill="#FF6B21"></path>
        </g>
    </g>
</svg>