<?xml version="1.0" encoding="UTF-8"?>
<svg width="188px" height="240px" viewBox="0 0 188 240" version="1.1" xmlns="http://www.w3.org/2000/svg" xmlns:xlink="http://www.w3.org/1999/xlink">
    <!-- Generator: Sketch 63.1 (92452) - https://sketch.com -->
    <title>Weather station</title>
    <desc>Created with Sketch.</desc>
    <g id="Screens" stroke="none" stroke-width="1" fill="none" fill-rule="evenodd">
        <g id="Home" transform="translate(-546.000000, -6378.000000)" stroke="#FEFEFE">
            <g id="Forecasting-wildfire-behavior" transform="translate(-154.000000, 6300.000000)">
                <g id="Weather-station" transform="translate(794.000000, 198.000000) scale(-1, 1) translate(-794.000000, -198.000000) translate(701.000000, 79.000000)">
                    <path d="M45.5288388,10.3964483 C46.3219576,4.29072851 51.6363992,-0.229231749 57.9813495,0.00899588848 C61.2338642,3.02230273 61.5503841,11.9031017 61.2338642,16.6612896 L65.6751476,17.6914878 C66.3891364,11.6657834 69.0058827,10.2382361 71.9409679,10.0791146 C74.8760532,9.9209023 82.2524218,13.4097552 82.4115913,20.5456731 C82.5707607,27.6825003 76.6996807,31.1722624 73.5272055,31.1722624 C70.3547303,31.1722624 66.4682663,27.9998341 65.4377576,21.1012345 C63.2957912,21.0221284 60.5189659,20.9430223 60.5189659,20.9430223 C60.5189659,20.9430223 60.202446,23.4807831 59.0127678,25.1456488 C59.0127678,26.8896205 58.9327283,27.2069543 57.1081912,27.4442727 C57.1882307,28.87182 57.3464907,31.6468992 57.3464907,31.6468992 L59.4093272,35.4539951 L64.8019893,56.9417643 L117.469807,57.4182196 L117.469807,55.3560047 L118.738615,55.1968832 L118.738615,54.3258066 L126.749842,54.563125 L126.909012,55.514217 L127.463831,55.4351109 L128.33608,37.5143913 L128.970939,37.1979668 L129.288368,31.4886869 C129.288368,31.4886869 130.477137,31.3295654 133.094793,31.3295654 C135.712448,31.3295654 136.109008,31.8851268 136.109008,31.8851268 L136.584697,37.4352852 L137.140426,37.9908466 L137.377816,41.1623657 C137.377816,41.1623657 174.340608,41.1623657 184.017203,42.5098976 L184.652062,55.1186864 L182.113536,55.3560047 L184.652062,57.9728717 C184.652062,57.9728717 186,92.4658696 186,93.0996278 C186,93.7342954 185.365141,94.4471597 184.572022,94.8445089 C184.176373,95.4782671 183.938073,95.8756163 183.938073,95.8756163 C183.938073,95.8756163 178.861931,98.1742402 154.749119,97.2231482 L154.669989,97.7787096 L142.217478,98.016028 L135.791578,96.5884807 L135.950748,103.328868 L135.157629,104.27996 L133.650522,104.6764 L133.094793,202.446114 C133.094793,202.446114 146.500501,199.750141 146.896151,199.670125 C147.29362,199.591019 147.68927,199.750141 148.165869,199.988368 C148.641558,200.225687 151.814033,202.286992 152.528022,202.92166 C153.242011,203.556327 154.431689,205.221193 154.510819,206.966074 C154.589949,208.710955 154.749119,215.608645 154.749119,215.608645 L159.349571,219.017483 L160.935809,220.84147 C160.935809,220.84147 161.173199,224.886793 161.173199,225.520552 C161.173199,226.15431 161.173199,226.868084 159.666091,227.265433 C158.159893,227.660963 113.979902,237.255536 111.997105,237.652885 C110.013399,238.048416 106.365234,238.524871 104.461567,236.462656 C102.5579,234.400441 99.3062949,230.991604 99.3062949,230.991604 C99.3062949,230.991604 97.8783173,226.234325 95.1024015,226.392538 L90.5810786,221.714365 C90.5810786,221.714365 90.6602086,217.590845 90.6602086,216.797965 C90.6602086,216.005085 92.0872767,214.419326 94.1501132,214.022886 C96.2129497,213.626446 116.120959,210.137593 116.120959,210.137593 L116.200089,204.665631 C116.200089,204.665631 116.518428,203.952767 117.707197,203.714539 C117.707197,201.574128 117.469807,103.804414 117.469807,103.804414 C117.469807,103.804414 115.883569,103.646202 115.804439,101.981336 C115.725309,100.315561 115.32784,77.7957753 115.32784,77.7957753 C115.32784,77.7957753 109.855139,72.4829352 104.223268,70.6598573 L104.223268,72.0874046 L110.728297,77.162017 C110.728297,77.162017 108.98289,77.8757907 105.730375,78.1931244 L110.410868,82.0784171 C110.410868,82.0784171 109.29941,82.950403 106.047805,83.2677368 L110.648257,87.0730142 C110.648257,87.0730142 109.696879,87.9459093 106.206974,88.2632431 L110.648257,92.0685204 C110.648257,92.0685204 110.092529,92.7040972 106.524404,93.3378555 L110.807427,96.9849206 C110.807427,96.9849206 108.189771,99.1262415 88.9948411,99.1262415 C69.799911,99.1262415 68.2928034,97.0640267 68.2928034,97.0640267 L72.4166573,93.3378555 C72.4166573,93.3378555 70.2756004,93.0205217 68.0554135,91.9103082 L72.4966968,88.3423492 C72.4966968,88.3423492 69.6416511,88.1041216 68.1345434,86.993908 L72.4966968,83.1886307 C72.4966968,83.1886307 69.2441821,83.0295092 67.896244,81.9984018 L72.5758268,78.0576438 C72.5758268,78.0576438 69.3242216,77.8757907 67.6579445,76.9237894 L73.3689456,72.1665107 L73.4480755,69.4705377 L65.992577,69.6296592 L61.0746947,98.5715894 L58.9327283,102.6942 C58.9327283,102.6942 59.1710277,106.896827 59.0918978,107.769722 C59.0127678,108.641708 58.7981164,109.355482 55.9421611,109.751922 L55.9421611,112.446985 C55.9421611,112.446985 89.8670898,110.78212 90.977638,110.703014 C92.0872767,110.623907 94.7049325,112.446985 95.4198309,116.254081 C96.1338197,120.059359 98.7514756,133.935664 98.8306055,134.728544 C98.908826,135.521423 98.908826,136.157 97.5608878,136.314303 C96.2129497,136.473425 83.1255801,137.74276 76.5423303,138.13829 C69.9581709,138.53564 62.8992318,133.856558 60.5189659,126.403306 C58.1396095,118.950054 57.6648297,116.174066 55.9194226,115.699429 L55.9194226,116.88784 L54.7288349,118.315387 C54.7288349,118.315387 53.6191962,118.790933 51.3980997,118.790933 C49.1779129,118.790933 48.2256246,117.918947 48.2256246,117.918947 L47.3533758,117.285189 L47.1150764,115.222974 C41.2458154,115.063852 31.9657798,116.88784 21.4951565,116.966946 C11.0254427,117.046961 11.501132,115.30208 11.501132,115.30208 C11.501132,115.30208 15.0710761,109.910134 24.7467616,109.910134 C34.4242661,109.910134 38.54812,112.606107 47.0350368,112.844335 L46.8767769,109.672815 C46.8767769,109.672815 43.0694429,109.751922 42.9903129,107.927934 C42.9111829,106.103947 42.7520135,102.853322 42.7520135,102.853322 L40.4526966,98.5715894 L32.4405596,69.3914315 C32.4405596,69.3914315 30.9343615,69.1532039 30.6960621,68.5185364 L35.9313737,35.2948735 L37.8350408,31.092247 L37.7550012,27.1269389 C37.7550012,27.1269389 35.8513342,26.9696359 35.3756449,26.0967408 C35.2965149,24.4318751 35.0582154,19.9119148 35.0582154,19.9119148 L21.335987,19.515475 C20.7811676,24.352769 16.7364437,28.87182 10.9463127,28.87182 C5.15527215,28.87182 0,23.7972076 0,16.6612896 C0,9.52446242 6.1866904,6.43204945 9.83576448,6.43204945 C13.4848386,6.43204945 19.19493,9.20712866 20.9403371,15.7092883 L35.4556844,15.3128485 C35.4556844,15.3128485 37.041922,12.2995416 37.4375718,11.6657834 C37.8350408,11.0311158 39.3412388,10.2382361 45.5288388,10.3964483 Z" id="Stroke-1" stroke-width="0.75"></path>
                    <path d="M45.0914736,10 C44.4216127,15.5332977 47.3055796,23.5211895 57.9042051,25 L59,24.4417735" id="Stroke-3" stroke-width="0.75"></path>
                    <path d="M60.8925,16 C60.8925,16 60.6055,18.0811213 60.1075,20" id="Stroke-5" stroke-width="0.75"></path>
                    <path d="M19.8198589,16.1374483 C20.8382111,21.9242151 17.4392605,27.2826644 12.1440065,27.9349973 C6.79010386,28.5936027 1.8058649,24.1688498 1.08608712,18.2315446 C0.391190554,12.4895809 3.9811933,7.5540727 9.03652142,7.0433175 C14.0394213,6.53614655 18.8343853,10.5379583 19.8198589,16.1374483 Z" id="Stroke-7" stroke-width="0.25"></path>
                    <path d="M36,26.7784305 C36,26.7784305 42.9280229,24.9834305 57,26.9664305" id="Stroke-9" stroke-width="0.25"></path>
                    <line x1="37.5105" y1="26.872" x2="37.4895" y2="26.128" id="Stroke-11" stroke-width="0.25"></line>
                    <line x1="57.522" y1="27.928" x2="57.478" y2="27.072" id="Stroke-13" stroke-width="0.25"></line>
                    <path d="M32,69.1121866 C34.0111144,69.7141866 40.9901055,69.9671866 49.0926292,69.8661866 C57.195153,69.7641866 66,69.3741866 66,69.3741866" id="Stroke-15" stroke-width="0.25"></path>
                    <path d="M64.9119528,57 C64.9119528,57 65.2001968,57.9862321 65.3999016,58.4031683 C65.5996065,58.8201045 64,60.1648835 64,60.1648835 L66,68" id="Stroke-17" stroke-width="0.25"></path>
                    <line x1="137.182" y1="41" x2="137.818" y2="59" id="Stroke-19" stroke-width="0.25"></line>
                    <path d="M138,55.1028437 C138,55.1028437 177.74826,56.0078437 182,55.8858437" id="Stroke-21" stroke-width="0.25"></path>
                    <path d="M138,59 C138,59 142.435818,60.4218617 151.508548,61.339978 L152,96" id="Stroke-23" stroke-width="0.25"></path>
                    <path d="M184,94.3630512 C180.912896,95.4533238 173.158437,96.4506552 150.231228,95.7857676 L145.51132,95.8688786 L144.668641,95.4533238 L133.542561,94.2888769 C133.542561,94.2888769 130.930256,84.9777697 126.210348,80.9044396 C121.489534,76.8311095 119.129127,76.5826703 119.129127,76.5826703 L115,76 L115.017216,77.6068117" id="Stroke-25" stroke-width="0.25"></path>
                    <path d="M118,104 C118,104 120.215177,104.394741 121.135245,104.587297 C122.055312,104.779166 123.644519,105.098947 125.987409,104.970347 C128.330298,104.843122 134,104.659506 134,104.659506" id="Stroke-27" stroke-width="0.25"></path>
                    <path d="M73,69.4062553 C73,69.4062553 102.573701,69.0442553 109,69.6942553" id="Stroke-29" stroke-width="0.25"></path>
                    <path d="M30,69 C30,69 34.161386,70.1999549 45.6998158,69.9500766 C57.2373337,69.6984007 90.7472979,69.1968465 99.3163057,69.2804389 C107.884402,69.3640313 118.488959,68.9667428 130.704994,77.8931487 C140.54622,85.0838896 146.060991,95.7864085 146.060991,95.7864085 L152.168552,95.7864085 C152.168552,95.7864085 177.025606,96.7895168 185,94.4480318" id="Stroke-31" stroke-width="0.25"></path>
                    <path d="M138,57.175 C138,57.175 172.308257,57.547 184,57.825" id="Stroke-33" stroke-width="0.25"></path>
                    <line x1="64" y1="60" x2="149" y2="61" id="Stroke-35" stroke-width="0.25"></line>
                    <line x1="118" y1="55.3255" x2="126" y2="55.6745" id="Stroke-37" stroke-width="0.25"></line>
                    <polyline id="Stroke-39" stroke-width="0.25" points="125 55 125.083333 57.8333831 126 58"></polyline>
                    <polyline id="Stroke-41" stroke-width="0.25" points="77 69.1122611 77 72 78 72 78 69"></polyline>
                    <polyline id="Stroke-43" stroke-width="0.25" points="100.084154 69.1122611 100 72 101 72 100.916741 69"></polyline>
                    <path d="M75,72.186125 C75,72.186125 91.1087942,73.302125 103,72.558125" id="Stroke-45" stroke-width="0.25"></path>
                    <line x1="91.5465" y1="70" x2="91.4535" y2="73" id="Stroke-47" stroke-width="0.25"></line>
                    <line x1="94.4535" y1="70" x2="94.5465" y2="73" id="Stroke-49" stroke-width="0.25"></line>
                    <line x1="74" y1="70.5" x2="77" y2="70.5" id="Stroke-51" stroke-width="0.25"></line>
                    <line x1="92" y1="70.453" x2="95" y2="70.547" id="Stroke-53" stroke-width="0.25"></line>
                    <line x1="100" y1="69.4465" x2="104" y2="69.5535" id="Stroke-55" stroke-width="0.25"></line>
                    <path d="M112,72 L112,75 L115,75 L115,74.0003981 C115,74.0003981 113.875302,72.4442675 112,72 Z" id="Stroke-57" stroke-width="0.25"></path>
                    <path d="M117.595689,72.2242203 C118.42268,72.4547757 119.05036,72.7651387 118.996813,72.9167732 C118.943267,73.0692945 118.231302,73.0063352 117.404311,72.7757797 C116.57732,72.5452243 115.94964,72.235748 116.003187,72.0832268 C116.055741,71.9307055 116.768698,71.9936648 117.595689,72.2242203 Z" id="Stroke-59" stroke-width="0.25"></path>
                    <path d="M73,78.1987743 C85.9756666,79.4617743 106,78.3467743 106,78.3467743" id="Stroke-61" stroke-width="0.25"></path>
                    <path d="M72,83.0947862 C72,83.0947862 90.0120364,84.8587862 106,83.1817862" id="Stroke-63" stroke-width="0.25"></path>
                    <path d="M73,88.2016013 C73,88.2016013 91.1618326,89.7966013 107,88.1146013" id="Stroke-65" stroke-width="0.25"></path>
                    <path d="M73,93 C73,93 90.2289394,95.25 107,93" id="Stroke-67" stroke-width="0.25"></path>
                    <path d="M132,99.5 C132,100.328 131.328523,101 130.5,101 C129.671477,101 129,100.328 129,99.5 C129,98.672 129.671477,98 130.5,98 C131.328523,98 132,98.672 132,99.5 Z" id="Stroke-69" stroke-width="0.25"></path>
                    <path d="M131,101 C129.896188,101 129,100.328323 129,99.4996113 C129,98.6716766 129.896188,98 131,98" id="Stroke-71" stroke-width="0.25"></path>
                    <line x1="135.5505" y1="97" x2="135.4495" y2="95" id="Stroke-73" stroke-width="0.25"></line>
                    <line x1="56.5125" y1="113" x2="56.4875" y2="116" id="Stroke-75" stroke-width="0.25"></line>
                    <polyline id="Stroke-77" stroke-width="0.25" points="56 115 56.6839283 114.250252 92 112"></polyline>
                    <path d="M47,112 C48.1225858,112.481348 48.1225858,114.329723 47.8491354,115" id="Stroke-79" stroke-width="0.25"></path>
                    <line x1="129" y1="98" x2="131" y2="99" id="Stroke-81" stroke-width="0.25"></line>
                    <line x1="130.019" y1="100" x2="130.981" y2="98" id="Stroke-83" stroke-width="0.25"></line>
                    <path d="M128.176012,55 L128,58.0741179 C128,58.0741179 128.614282,60 135,60" id="Stroke-85" stroke-width="0.25"></path>
                    <path d="M117,58.031 C117,58.031 118.983908,58.969 123,58.969" id="Stroke-87" stroke-width="0.25"></path>
                    <path d="M133,202 C133,202 132.999113,204.733201 132.999113,205.767935 C132.999113,206.802668 132.999113,206.961233 132.374039,207.200096 C131.749852,207.438958 127.031209,208.472676 125.435276,208.791837 C123.838456,209.108966 123.352583,209.108966 122.450881,208.472676 C122.450881,208.472676 118.842298,205.290209 118.495626,205.052363 C118.148067,204.8135 118.129448,204.568538 118,203.418947" id="Stroke-89" stroke-width="0.25"></path>
                    <path d="M117,205 C117,205 120.850177,208.388702 121.939885,209.312625 C123.029593,210.236548 124.119301,210.083053 126.226317,209.697347 C128.333333,209.312625 134,208.080727 134,208.080727" id="Stroke-91" stroke-width="0.25"></path>
                    <path d="M116.125096,210 C116.125096,210 116.011593,214.691612 116.011593,215.18718 C116.011593,215.682747 115.868798,216.389925 116.585517,217.027471 C117.301321,217.665016 119.880776,219.716919 120.668892,220.354464 C121.457009,220.991105 124.179259,221.203621 126.543607,220.779495 C128.907955,220.354464 155,215.442198 155,215.442198" id="Stroke-93" stroke-width="0.25"></path>
                    <path d="M92,216 C92,216.483225 92.4233616,216.89767 93.1301679,217.588118 C93.8360715,218.277684 103.374797,227.733202 104.505867,228.699652 C105.635133,229.666103 107.613829,230.355669 110.934826,229.803663 C114.25492,229.251658 157,220.83137 157,220.83137" id="Stroke-95" stroke-width="0.25"></path>
                    <path d="M91,219 C91,219 103.202276,230.783373 104.343647,231.799136 C105.485018,232.814899 108.553592,233.289902 111.407931,232.814899 C114.261359,232.340761 159,223.402217 159,223.402217" id="Stroke-97" stroke-width="0.25"></path>
                    <path d="M130.853188,215.024576 C130.495449,215.800296 129.599699,216.194585 128.852463,215.904869 C128.106161,215.615152 127.78952,214.752002 128.147259,213.975424 C128.503131,213.199704 129.39888,212.805415 130.146116,213.095131 C130.894286,213.384848 131.209993,214.248855 130.853188,215.024576 Z" id="Stroke-99" stroke-width="0.25"></path>
                    <path d="M128.794534,215 C128.099385,214.700928 127.803653,213.8083 128.137253,213.007411 C128.469951,212.205605 129.303048,211.799198 130,212.098269" id="Stroke-101" stroke-width="0.25"></path>
                    <line x1="129" y1="213" x2="130" y2="214" id="Stroke-103" stroke-width="0.25"></line>
                    <line x1="129" y1="214" x2="130" y2="213" id="Stroke-105" stroke-width="0.25"></line>
                    <path d="M149,219.5 C149,219.77656 148.327957,220 147.498925,220 C146.670968,220 146,219.77656 146,219.5 C146,219.224283 146.670968,219 147.498925,219 C148.327957,219 149,219.224283 149,219.5 Z" id="Stroke-107" stroke-width="0.25"></path>
                    <path d="M116,225.499579 C116,225.775906 115.329032,226 114.5,226 C113.672043,226 113,225.775906 113,225.499579 C113,225.224094 113.672043,225 114.5,225 C115.329032,225 116,225.224094 116,225.499579 Z" id="Stroke-109" stroke-width="0.25"></path>
                    <path d="M105,214.500421 C105,214.775906 104.327957,215 103.498925,215 C102.670968,215 102,214.775906 102,214.500421 C102,214.224094 102.670968,214 103.498925,214 C104.327957,214 105,214.224094 105,214.500421 Z" id="Stroke-111" stroke-width="0.25"></path>
                    <path d="M147,202.5 C147,202.775717 146.329032,203 145.5,203 C144.672043,203 144,202.775717 144,202.5 C144,202.224283 144.672043,202 145.5,202 C146.329032,202 147,202.224283 147,202.5 Z" id="Stroke-113" stroke-width="0.25"></path>
                    <path d="M157,219.5 C157,219.77656 156.329032,220 155.5,220 C154.672043,220 154,219.77656 154,219.5 C154,219.224283 154.672043,219 155.5,219 C156.329032,219 157,219.224283 157,219.5 Z" id="Stroke-115" stroke-width="0.25"></path>
                    <path d="M159,219 C159,219.552563 157.88079,220 156.500461,220 C155.11921,220 154,219.552563 154,219 C154,218.447437 155.11921,218 156.500461,218 C157.88079,218 159,218.447437 159,219 Z" id="Stroke-117" stroke-width="0.25"></path>
                    <path d="M111,228.500376 C111,228.776524 110.328645,229 109.500959,229 C108.671355,229 108,228.776524 108,228.500376 C108,228.224229 108.671355,228 109.500959,228 C110.328645,228 111,228.224229 111,228.500376 Z" id="Stroke-119" stroke-width="0.25"></path>
                    <path d="M112,228.5 C112,229.328428 110.657778,230 109.000494,230 C107.34321,230 106,229.328428 106,228.5 C106,227.671572 107.34321,227 109.000494,227 C110.657778,227 112,227.671572 112,228.5 Z" id="Stroke-121" stroke-width="0.25"></path>
                    <path d="M97,215.5 C97,215.77656 96.327957,216 95.4989247,216 C94.6709677,216 94,215.77656 94,215.5 C94,215.224283 94.6709677,215 95.4989247,215 C96.327957,215 97,215.224283 97,215.5 Z" id="Stroke-123" stroke-width="0.25"></path>
                    <path d="M98,215 C98,215.553432 96.8798671,216 95.4995387,216 C94.1192102,216 93,215.553432 93,215 C93,214.447437 94.1192102,214 95.4995387,214 C96.8798671,214 98,214.447437 98,215 Z" id="Stroke-125" stroke-width="0.25"></path>
                    <path d="M44,82.1440791 C43.8173554,77.2855271 42.6545455,71.0385669 42.6545455,71.0385669 L40,71 C40.3644628,75.7428514 42.2909091,86.0384588 43.2,86" id="Stroke-127" stroke-width="0.25"></path>
                    <path d="M40,71.016 L40,71.631 C40,71.631 40.151801,71.984 40.9442539,71.984 C41.7358491,71.984 42,71.587 42,71.587" id="Stroke-129" stroke-width="0.25"></path>
                </g>
            </g>
        </g>
    </g>
</svg>